<?xml version="1.0" standalone="no"?>
<!DOCTYPE svg PUBLIC "-//W3C//DTD SVG 20010904//EN"
 "http://www.w3.org/TR/2001/REC-SVG-20010904/DTD/svg10.dtd">
<svg version="1.0" xmlns="http://www.w3.org/2000/svg"
 width="170.000000pt" height="170.000000pt" viewBox="0 0 170.000000 170.000000"
 preserveAspectRatio="xMidYMid meet">
<metadata>
Created by potrace 1.11, written by Peter Selinger 2001-2013
</metadata>
<g transform="translate(0.000000,170.000000) scale(0.100000,-0.100000)"
fill="#000000" stroke="none">
<path d="M94 1596 c-3 -8 -4 -27 -1 -43 3 -24 4 -23 6 9 0 20 7 39 14 41 9 4
9 6 -1 6 -7 1 -15 -5 -18 -13z"/>
<path d="M344 1597 c12 -9 17 -23 14 -47 l-3 -35 -133 0 -132 0 0 -46 c0 -34
5 -49 16 -53 9 -3 64 -6 124 -6 135 0 140 4 140 100 0 79 -6 100 -28 100 -13
0 -13 -2 2 -13z m-191 -120 c7 -18 -4 -32 -23 -32 -8 0 -18 4 -22 9 -10 15 3
36 22 36 10 0 20 -6 23 -13z m67 -12 c0 -37 -43 -30 -46 8 -1 12 5 17 22 17
19 0 24 -5 24 -25z m62 19 c10 -9 -4 -44 -18 -44 -15 0 -36 34 -27 44 8 7 38
8 45 0z m42 -22 c-16 -13 -17 -14 -1 -9 9 4 17 2 17 -3 0 -6 -9 -10 -20 -10
-13 0 -20 7 -20 18 0 24 8 32 27 25 14 -5 13 -8 -3 -21z"/>
<path d="M110 1561 c0 -13 8 -18 29 -18 17 0 29 5 28 10 -1 5 4 12 11 14 6 3
12 -3 13 -14 0 -14 2 -15 6 -3 3 8 11 18 16 22 6 4 -15 7 -46 7 -48 0 -57 -3
-57 -18z"/>
<path d="M231 1565 c-1 -15 5 -20 24 -20 19 0 25 5 24 20 0 11 -3 14 -6 8 -2
-7 -11 -13 -18 -13 -7 0 -16 6 -18 13 -3 6 -6 3 -6 -8z"/>
<path d="M290 1560 c0 -9 10 -16 23 -16 16 -1 23 4 23 16 0 12 -7 17 -23 16
-13 0 -23 -7 -23 -16z"/>
<path d="M278 1253 c24 -9 0 -23 -41 -23 -23 0 -37 -4 -31 -8 8 -5 7 -11 -4
-22 -9 -8 -18 -14 -19 -12 -2 1 -10 2 -19 2 -13 0 -14 -3 -5 -14 10 -11 8 -17
-6 -26 -15 -9 -12 -10 16 -6 18 3 53 6 78 6 40 0 44 2 38 20 -5 14 -2 20 9 20
9 0 16 -8 16 -20 0 -16 8 -19 58 -22 56 -3 57 -3 60 -35 4 -37 -15 -46 -20
-10 -4 30 -75 44 -155 31 -49 -8 -58 -12 -61 -31 -5 -31 -22 -29 -22 2 0 22
-4 25 -37 24 -21 0 -32 -3 -25 -6 17 -7 15 -23 -3 -23 -8 0 -15 -6 -15 -12 1
-21 28 -51 39 -43 6 3 11 1 11 -4 0 -6 -4 -11 -9 -11 -5 0 -11 -9 -14 -21 -4
-16 -11 -19 -29 -14 -16 4 -19 3 -10 -3 8 -5 13 -13 12 -17 -1 -5 10 -15 25
-24 24 -15 27 -15 36 2 8 13 24 17 74 17 63 0 65 1 65 25 0 23 -4 25 -41 25
-24 0 -38 4 -34 10 3 6 42 10 86 10 46 0 79 -4 79 -10 0 -5 -16 -10 -35 -10
-31 0 -35 -3 -35 -25 0 -23 4 -25 43 -26 23 -1 55 -4 71 -8 25 -5 27 -8 14
-19 -12 -9 -23 -10 -42 -2 -37 14 -157 13 -228 -2 -32 -7 -58 -14 -58 -18 0
-7 51 -30 67 -30 7 0 13 -5 13 -11 0 -6 6 -9 14 -6 8 3 28 -7 45 -24 17 -16
42 -29 56 -29 14 0 25 -4 25 -10 0 -5 11 -10 25 -10 14 0 25 -5 25 -11 0 -7
-8 -9 -22 -4 -13 3 -34 9 -48 12 -14 3 -38 11 -55 18 -44 18 -85 27 -85 17 0
-17 173 -61 238 -61 36 0 40 6 16 23 -12 10 -3 12 48 14 136 5 279 -1 297 -12
6 -4 8 -12 5 -18 -4 -7 -2 -8 5 -4 6 4 8 12 5 18 -5 7 0 9 14 6 12 -4 22 -3
22 1 0 10 134 7 142 -4 5 -6 8 -5 8 3 0 6 12 12 28 13 l27 1 -30 13 c-18 8
-46 12 -70 8 -22 -3 -37 -3 -34 1 8 9 140 16 135 7 -3 -4 -1 -13 5 -21 7 -12
9 -10 9 7 0 13 13 31 30 43 19 14 28 16 24 7 -2 -7 2 -20 11 -27 11 -9 15 -9
15 -1 0 7 8 11 18 9 9 -1 23 1 30 5 7 5 12 4 12 -3 0 -7 6 -8 18 -1 10 5 38
12 62 15 23 3 51 13 62 22 20 19 58 26 58 12 0 -5 5 -6 10 -3 6 4 8 10 6 14
-3 4 8 5 25 3 23 -3 28 -1 23 11 -3 9 -12 13 -20 10 -10 -4 -12 0 -8 11 3 9
16 17 28 17 20 1 20 2 1 6 -40 10 -36 20 7 17 33 -2 37 -1 18 5 l-25 8 30 5
c30 5 30 5 -5 7 -33 3 -33 4 -10 11 14 4 39 8 56 9 18 1 42 10 55 21 l24 19
-22 -4 c-13 -2 -23 1 -23 6 0 6 -8 8 -18 5 -44 -12 -124 -18 -118 -8 3 6 31
14 61 17 31 4 58 11 61 16 3 5 -9 6 -27 2 -23 -4 -30 -3 -25 5 4 7 25 12 47
12 27 0 39 4 39 14 0 17 -30 30 -42 18 -11 -11 -70 -3 -62 9 3 5 -1 9 -8 10
-7 0 -4 5 7 10 20 9 -55 3 -100 -7 -17 -5 -16 -2 5 15 l25 21 -50 0 c-27 0
-68 -5 -90 -10 -22 -5 -61 -11 -86 -14 -54 -7 -81 -15 -91 -30 -4 -6 -12 -5
-22 3 -9 8 -16 9 -16 4 0 -5 -10 -10 -22 -10 -13 -1 -33 -8 -46 -15 -19 -10
-25 -10 -31 1 -6 9 -10 5 -15 -13 -5 -22 -12 -26 -44 -26 -27 0 -33 3 -22 10
13 9 13 10 0 10 -21 -1 -82 -58 -75 -70 11 -17 37 -11 42 10 6 23 23 27 23 6
0 -8 -17 -28 -37 -44 -32 -26 -35 -32 -20 -37 25 -10 50 2 43 21 -4 10 -1 14
6 12 22 -8 20 -36 -1 -43 -18 -5 -21 -15 -21 -61 0 -30 -4 -54 -10 -54 -5 0
-10 24 -10 54 0 49 -2 54 -25 60 -31 8 -32 20 -3 40 12 9 18 16 13 16 -6 0
-17 5 -25 10 -12 7 -11 13 10 36 25 26 25 26 3 20 -18 -6 -23 -3 -23 11 0 14
-2 15 -9 4 -5 -8 -16 -11 -24 -8 -12 5 -17 -2 -19 -31 -3 -37 -3 -37 -48 -37
l-45 0 0 -49 c0 -31 -5 -51 -12 -53 -9 -3 -13 11 -13 50 l0 55 -44 -5 c-42 -5
-43 -4 -49 27 -9 44 -3 50 49 50 24 0 44 5 44 10 0 6 -15 10 -34 10 -19 0 -38
5 -41 10 -4 6 6 10 22 10 l28 1 -34 14 c-39 18 -44 18 -36 5 8 -13 -41 -13
-66 1 -11 6 -43 12 -71 15 -27 2 -54 6 -59 10 -20 12 -7 24 27 24 31 0 35 2
24 15 -7 8 -27 15 -44 14 -17 0 -25 -3 -18 -6z m858 -122 c-18 -19 -24 -31
-16 -36 16 -10 40 2 40 20 0 8 5 15 10 15 17 0 11 -38 -7 -45 -17 -6 -17 -7 0
-16 21 -12 22 -35 2 -43 -11 -4 -15 -20 -15 -55 0 -27 -4 -53 -10 -56 -6 -4
-10 13 -10 44 0 40 -4 53 -22 66 -18 12 -21 19 -12 33 8 11 8 22 1 33 -8 12
-3 25 19 52 18 24 32 33 38 27 6 -6 0 -20 -18 -39z m160 29 c33 0 47 -20 24
-35 -21 -13 -9 -25 24 -25 57 0 51 -19 -6 -22 -39 -2 -54 -7 -56 -19 -4 -24
26 -32 59 -15 27 13 39 12 39 -6 0 -4 -7 -8 -15 -8 -22 0 -18 -16 10 -38 30
-24 31 -32 5 -32 -12 0 -26 13 -37 33 l-17 32 -7 -39 c-7 -42 -30 -66 -63 -65
-20 0 -20 1 -2 12 29 18 56 46 56 57 0 6 -18 -3 -39 -20 -22 -18 -47 -30 -57
-28 -14 2 -7 10 29 31 26 15 47 32 47 37 0 15 -9 12 -37 -10 -14 -11 -32 -20
-39 -20 -17 0 -19 20 -1 20 6 0 23 10 37 21 18 15 20 19 7 15 -11 -3 -31 -9
-45 -12 -26 -5 -26 -5 -8 10 11 9 25 16 32 16 6 0 18 7 25 17 13 15 10 16 -29
9 -34 -5 -43 -3 -40 6 3 7 18 13 34 14 53 1 64 4 64 15 0 7 -11 8 -30 4 -30
-7 -31 -6 -24 22 9 37 17 50 22 35 2 -7 19 -12 38 -12z m-925 -70 c16 0 29 -4
29 -10 0 -5 -15 -10 -34 -10 -26 0 -36 5 -41 20 -3 11 -3 25 2 32 6 9 9 6 11
-9 3 -18 10 -23 33 -23z m589 10 c0 -29 1 -30 51 -30 36 0 49 -4 46 -12 -2 -9
-20 -12 -50 -10 -37 3 -47 0 -47 -12 0 -9 11 -16 33 -18 58 -5 29 -21 -43 -22
-44 -1 -69 2 -67 9 2 5 16 11 30 13 16 2 27 10 27 18 0 12 -10 15 -37 13 -21
-2 -40 1 -43 7 -3 5 14 10 38 12 39 3 42 5 42 33 0 16 5 29 10 29 6 0 10 -13
10 -30z m-680 11 c0 -22 -63 -61 -77 -48 -9 10 8 27 28 27 11 0 22 7 25 15 7
16 24 21 24 6z m-93 -87 c-3 -3 -12 -4 -19 -1 -8 3 -5 6 6 6 11 1 17 -2 13 -5z
m1238 -4 c-3 -5 -14 -10 -23 -9 -14 0 -13 2 3 9 27 11 27 11 20 0z m-329 -68
c-23 -24 -31 -7 -9 21 14 19 19 22 21 10 2 -8 -3 -22 -12 -31z m102 21 c6 -19
-25 -16 -32 3 -4 11 -1 14 11 12 9 -2 18 -9 21 -15z m-190 -11 c8 -6 10 -19 6
-40 -6 -31 -8 -32 -55 -32 -27 0 -52 0 -56 0 -10 -1 -16 47 -9 66 6 15 91 20
114 6z m-228 -11 c0 -15 -38 -56 -45 -49 -4 4 1 18 12 32 18 26 33 33 33 17z
m100 -21 c0 -6 -7 -10 -15 -10 -8 0 -15 2 -15 4 0 2 -3 12 -7 21 -5 15 -3 16
15 6 12 -7 22 -16 22 -21z m-42 -97 c-10 -2 -26 -2 -35 0 -10 3 -2 5 17 5 19
0 27 -2 18 -5z m-438 -13 c0 -13 -20 -13 -40 0 -12 8 -9 10 13 10 15 0 27 -4
27 -10z"/>
<path d="M1121 1056 c-9 -10 -8 -15 2 -19 19 -7 41 8 33 22 -10 15 -21 14 -35
-3z"/>
<path d="M1265 1140 c-3 -5 3 -10 14 -10 12 0 21 5 21 10 0 6 -6 10 -14 10 -8
0 -18 -4 -21 -10z"/>
<path d="M910 930 c0 -17 7 -20 40 -20 33 0 40 3 40 20 0 17 -7 20 -40 20 -33
0 -40 -3 -40 -20z"/>
<path d="M1403 1217 c0 -9 9 -12 24 -9 13 2 23 8 23 13 0 5 -10 9 -23 9 -13 0
-24 -6 -24 -13z"/>
<path d="M448 1193 c7 -3 16 -2 19 1 4 3 -2 6 -13 5 -11 0 -14 -3 -6 -6z"/>
<path d="M1508 1183 c7 -3 16 -2 19 1 4 3 -2 6 -13 5 -11 0 -14 -3 -6 -6z"/>
<path d="M610 1135 c0 -10 10 -15 33 -14 17 0 25 3 17 6 -8 3 -23 10 -32 15
-13 6 -18 5 -18 -7z"/>
<path d="M517 1103 c-4 -3 -7 -15 -7 -25 0 -14 8 -18 34 -18 33 0 47 13 39 38
-5 13 -55 17 -66 5z"/>
<path d="M604 1095 c-9 -23 5 -35 42 -35 30 0 34 3 34 25 0 22 -4 25 -35 25
-22 0 -38 -6 -41 -15z"/>
<path d="M1687 1017 c-11 -29 -9 -43 4 -30 6 6 9 19 7 29 -3 18 -4 18 -11 1z"/>
<path d="M1681 937 c-9 -25 -17 -33 -34 -33 -13 1 -23 -5 -23 -14 -1 -8 -2
-19 -3 -24 0 -5 -8 -3 -16 4 -18 15 -36 5 -28 -16 4 -12 0 -14 -20 -9 -14 4
-35 1 -49 -6 -12 -7 -27 -12 -31 -11 -5 1 -6 -2 -2 -8 3 -5 1 -10 -5 -10 -7 0
-10 -6 -7 -14 5 -12 -41 -55 -51 -48 -1 2 -10 -5 -19 -13 -29 -29 -65 -49 -71
-39 -4 5 -18 10 -32 12 -19 2 -22 0 -10 -8 8 -5 11 -10 5 -10 -5 0 -5 -4 2 -8
8 -5 3 -12 -17 -19 -17 -6 -28 -7 -25 -2 11 17 -79 1 -92 -17 -20 -27 -16 -47
7 -41 12 3 27 -2 37 -11 20 -20 3 -27 -35 -14 -15 5 -36 6 -47 2 -11 -4 -27
-4 -36 1 -18 9 -47 -5 -30 -15 6 -4 15 -5 20 -1 5 3 13 0 16 -5 13 -21 54 -30
83 -18 42 17 50 17 56 1 5 -11 1 -14 -12 -11 -11 3 -30 -1 -43 -8 -19 -10 -20
-13 -6 -14 10 0 17 -8 17 -20 0 -22 87 -116 97 -106 4 3 12 1 19 -5 8 -6 14
-7 18 0 4 6 13 8 21 4 12 -4 15 6 15 56 0 34 -4 61 -10 61 -5 0 -11 -10 -12
-22 -1 -20 -3 -31 -7 -72 -3 -24 -41 30 -41 58 0 35 34 63 104 86 35 11 43 10
87 -11 27 -13 50 -31 52 -39 4 -12 5 -11 6 2 1 13 8 16 32 13 20 -2 32 1 36
11 3 8 13 14 22 14 12 0 13 2 3 9 -11 7 -11 9 2 14 25 10 38 54 24 80 -10 19
-9 20 4 9 13 -10 18 -6 32 32 13 33 16 72 15 165 -2 66 -4 121 -5 121 -1 0 -7
-15 -13 -33z m-301 -242 c-7 -8 -17 -15 -23 -15 -6 0 -2 7 9 15 25 19 30 19
14 0z m23 -19 c4 -10 1 -13 -8 -9 -8 3 -12 9 -9 14 7 12 11 11 17 -5z m-194
-42 c-13 -7 -32 -13 -42 -14 -32 0 3 25 36 26 l30 1 -24 -13z"/>
<path d="M705 731 c-17 -34 -7 -48 33 -42 13 1 25 -4 28 -13 9 -23 17 -20 38
16 19 30 19 31 0 26 -10 -3 -26 -9 -35 -12 -12 -5 -19 1 -27 23 -14 38 -18 38
-37 2z"/>
<path d="M456 679 c-3 -34 -2 -68 4 -77 6 -11 10 -12 11 -4 3 21 4 27 17 48 6
12 8 25 4 29 -4 5 -1 5 6 1 7 -4 12 -2 12 5 0 8 5 7 17 -2 14 -12 16 -12 8 0
-6 11 -4 13 8 8 10 -3 17 -4 17 -2 0 5 -84 55 -92 55 -3 0 -8 -27 -12 -61z"/>
<path d="M601 681 c-11 -7 -11 -15 -3 -39 6 -17 8 -33 5 -36 -4 -3 -3 -6 0 -6
4 0 14 14 23 31 13 26 14 34 2 45 -8 8 -18 10 -27 5z"/>
<path d="M1024 645 c-4 -8 -16 -15 -28 -15 -37 -1 4 -17 57 -22 42 -5 47 -3
47 14 0 17 -5 19 -30 13 -25 -5 -29 -4 -24 9 3 9 1 16 -5 16 -7 0 -14 -7 -17
-15z"/>
<path d="M366 623 c-11 -11 -7 -20 9 -20 8 0 15 4 15 8 0 11 -16 20 -24 12z"/>
<path d="M864 588 c-4 -6 -2 -14 4 -16 17 -5 15 -22 -5 -45 -17 -19 -17 -19 5
-13 l22 7 -21 -36 c-12 -20 -38 -48 -58 -63 -51 -38 -54 -46 -23 -53 25 -6 24
-7 -9 -8 -20 0 -48 -10 -62 -21 -14 -11 -31 -18 -39 -15 -8 3 -25 -6 -38 -21
-14 -14 -20 -25 -15 -24 24 5 27 -1 9 -15 -10 -8 -22 -15 -25 -15 -8 0 -32 57
-32 76 0 7 -4 11 -9 8 -4 -3 -8 -12 -8 -20 0 -16 -36 -19 -45 -4 -3 6 -1 10 6
10 7 0 2 9 -11 20 -16 14 -26 17 -31 9 -4 -7 -25 -10 -52 -8 -46 4 -46 4 -43
-25 2 -22 12 -33 41 -47 49 -24 50 -26 35 -44 -10 -12 -10 -15 4 -15 9 0 16
-4 16 -9 0 -5 22 -9 48 -9 27 0 62 -6 78 -14 16 -9 35 -13 41 -11 7 3 25 -5
39 -16 35 -27 74 -28 81 -1 5 19 7 19 28 6 18 -12 26 -13 40 -2 19 13 78 9 69
-5 -3 -5 0 -9 5 -9 6 0 11 7 11 15 0 13 7 15 35 9 28 -5 35 -3 35 10 0 9 5 16
11 16 5 0 8 -4 4 -9 -9 -15 12 -22 23 -8 7 8 7 18 2 27 -6 8 -10 24 -10 36 0
18 6 20 58 20 31 -1 68 3 81 8 17 6 22 5 16 -4 -9 -14 43 -8 72 9 17 10 17 10
-1 11 -11 0 -16 5 -13 13 3 8 -7 21 -24 31 -16 10 -27 21 -24 25 2 5 -8 14
-23 21 -17 8 -22 14 -14 17 8 3 19 0 25 -6 15 -15 30 -14 21 1 -5 8 -2 9 10 5
10 -4 20 -7 22 -7 2 0 4 -6 4 -13 0 -19 40 -49 56 -43 19 7 18 -9 -3 -29 -13
-13 -14 -18 -3 -25 9 -6 6 -10 -11 -15 -22 -7 -22 -9 -5 -15 21 -7 85 19 86
35 0 6 15 20 33 33 17 12 27 22 21 22 -7 0 -17 -7 -24 -15 -15 -19 -34 -20
-27 -2 4 10 -2 13 -21 10 -26 -3 -26 -3 -4 6 24 11 31 27 8 18 -8 -3 -22 1
-33 8 -23 18 -36 19 -27 3 3 -7 -8 2 -25 20 -26 26 -38 31 -62 27 -16 -3 -38
-1 -47 5 -15 10 -14 11 6 7 12 -3 22 -1 22 4 0 11 -36 30 -44 22 -3 -3 -6 -2
-6 4 0 18 -68 45 -87 35 -22 -11 -83 -23 -83 -17 0 8 72 35 80 30 16 -10 20
13 4 26 -13 10 -21 9 -46 -6 l-31 -18 16 24 c30 42 21 53 -20 28 -21 -12 -32
-16 -25 -9 6 8 12 24 12 37 0 20 -5 23 -34 23 -19 0 -38 -5 -42 -12z m153
-144 c13 -4 20 -10 17 -15 -3 -5 3 -9 12 -9 10 0 15 -2 13 -4 -2 -2 -35 0 -74
3 -69 7 -69 7 -35 18 44 14 41 14 67 7z m-67 -44 c0 -5 9 -10 19 -10 27 0 51
-10 51 -21 0 -6 -8 -5 -19 1 -28 15 -37 13 -37 -9 0 -11 3 -18 6 -16 3 2 6 -8
7 -22 1 -18 -2 -22 -10 -14 -16 16 -30 13 -23 -5 5 -12 1 -14 -17 -7 -12 4
-37 7 -54 7 -18 0 -33 3 -33 8 0 4 -4 8 -10 8 -5 0 -8 -6 -6 -12 1 -7 1 -10
-1 -5 -3 4 -13 7 -24 7 -10 0 -19 5 -19 11 0 6 6 9 13 6 6 -2 26 3 42 11 17 9
25 17 17 20 -17 5 26 39 58 45 14 2 28 5 33 6 4 0 7 -3 7 -9z m150 -10 c8 -5
11 -10 5 -10 -5 0 -17 5 -25 10 -8 5 -10 10 -5 10 6 0 17 -5 25 -10z m-80
-111 c0 -10 -27 -19 -34 -12 -11 12 -6 19 14 19 11 0 20 -3 20 -7z"/>
<path d="M875 370 c-3 -5 -1 -10 4 -10 6 0 11 5 11 10 0 6 -2 10 -4 10 -3 0
-8 -4 -11 -10z"/>
<path d="M445 569 c4 -10 3 -19 -2 -19 -19 0 -10 -36 13 -53 l25 -19 -3 51
c-2 38 -7 51 -21 55 -14 3 -16 0 -12 -15z"/>
<path d="M325 562 c-4 -4 -54 -7 -111 -7 -82 0 -107 -4 -114 -15 -5 -8 -10
-11 -10 -6 0 6 -9 0 -21 -12 -11 -12 -17 -26 -14 -31 3 -6 -7 -11 -22 -13 -18
-2 -28 -9 -29 -21 -1 -12 -1 -13 3 -2 2 8 9 15 14 15 5 0 3 -13 -6 -30 -8 -16
-15 -52 -15 -81 0 -47 2 -51 20 -46 11 3 27 -2 36 -10 12 -12 23 -13 57 -5 23
5 59 7 81 5 30 -4 37 -3 31 7 -5 8 -4 11 3 6 5 -3 12 -3 15 1 2 5 2 2 1 -4 -5
-19 14 -16 25 5 10 16 10 15 11 -3 1 -19 1 -19 14 -2 8 10 27 19 42 20 22 2
29 8 28 23 0 19 3 20 27 10 31 -11 49 -2 31 16 -16 16 -15 28 2 28 23 0 28 17
11 33 -8 9 -15 21 -15 27 0 6 -4 8 -10 5 -5 -3 -10 -1 -10 5 0 6 -3 9 -7 7 -5
-3 -13 1 -20 8 -10 10 -9 14 3 19 8 3 13 10 10 15 -4 5 0 12 6 14 7 3 -3 3
-22 0 -24 -3 -31 -2 -22 5 11 8 11 10 -1 15 -8 3 -18 3 -22 -1z"/>
<path d="M731 521 c-11 -19 -11 -25 0 -32 19 -12 -6 -29 -43 -29 -18 0 -28 -5
-28 -14 0 -18 37 -17 64 1 14 8 23 9 32 2 9 -8 10 0 3 33 -14 64 -15 65 -28
39z"/>
<path d="M1100 500 c35 -24 54 -31 30 -11 -14 11 -29 21 -35 21 -5 0 -3 -5 5
-10z"/>
<path d="M265 281 c-3 -5 -1 -12 5 -16 12 -7 30 2 30 16 0 12 -27 12 -35 0z"/>
<path d="M1046 186 c3 -8 12 -12 21 -9 12 5 12 7 1 14 -20 13 -28 11 -22 -5z"/>
</g>
</svg>
