<?xml version="1.0" standalone="no"?>
<!DOCTYPE svg PUBLIC "-//W3C//DTD SVG 20010904//EN"
 "http://www.w3.org/TR/2001/REC-SVG-20010904/DTD/svg10.dtd">
<svg version="1.0" xmlns="http://www.w3.org/2000/svg"
 width="170.000000pt" height="170.000000pt" viewBox="0 0 170.000000 170.000000"
 preserveAspectRatio="xMidYMid meet">
<metadata>
Created by potrace 1.11, written by Peter Selinger 2001-2013
</metadata>
<g transform="translate(0.000000,170.000000) scale(0.100000,-0.100000)"
fill="#000000" stroke="none">
<path d="M0 850 l0 -850 850 0 850 0 0 850 0 850 -850 0 -850 0 0 -850z m358
708 l3 -38 -130 0 -131 0 0 40 0 41 128 -3 127 -3 3 -37z m-148 -83 c0 -8 -4
-15 -10 -15 -5 0 -10 7 -10 15 0 8 5 15 10 15 6 0 10 -7 10 -15z m47 -17 c-3
-7 -5 -2 -5 12 0 14 2 19 5 13 2 -7 2 -19 0 -25z m-111 10 c4 -7 4 -10 -1 -6
-4 4 -14 3 -22 -3 -10 -9 -13 -8 -13 5 0 19 26 22 36 4z m870 -62 c10 -32 9
-34 -15 -33 -76 2 -102 -3 -99 -20 2 -10 6 -20 9 -23 3 -3 12 -18 20 -35 8
-16 23 -31 34 -33 18 -2 17 0 -5 19 l-25 22 48 -5 c57 -7 60 1 9 24 l-37 17
60 -4 c33 -2 61 -4 63 -4 9 -2 -12 -69 -30 -99 -16 -26 -19 -43 -14 -79 6 -43
4 -47 -31 -79 -38 -35 -90 -45 -123 -24 -12 8 -11 10 6 10 23 0 48 23 38 33
-4 3 10 3 30 0 22 -3 36 -2 36 5 0 14 -28 42 -43 42 -7 0 -19 5 -27 10 -13 9
-13 11 0 21 13 9 13 12 -3 22 -48 31 -47 29 -37 91 11 66 6 77 -40 96 -17 7
-30 16 -30 20 0 14 30 20 56 10 40 -16 69 -12 95 13 30 29 41 25 55 -17z
m-183 -73 c-7 -2 -19 -2 -25 0 -7 3 -2 5 12 5 14 0 19 -2 13 -5z m299 -31 c-7
-5 -10 -16 -6 -25 3 -9 2 -17 -4 -17 -5 0 -12 6 -15 14 -6 15 11 36 28 36 5 0
4 -4 -3 -8z m-282 -11 c0 -5 -11 -8 -24 -7 -13 0 -22 4 -19 9 6 10 43 9 43 -2z
m-43 -60 c-6 -2 -13 1 -15 8 -2 6 -8 9 -13 5 -5 -3 -9 2 -9 11 0 14 3 14 24
-2 13 -10 19 -20 13 -22z m-372 -3 c22 -10 65 -72 65 -93 0 -3 -11 -5 -25 -5
-18 0 -25 -5 -25 -20 0 -13 7 -20 19 -20 10 0 21 -7 25 -15 7 -18 -18 -156
-34 -185 -13 -24 -18 -25 -41 -4 -15 13 -16 20 -6 37 17 30 34 47 46 47 15 0
14 14 -6 93 -10 39 -23 67 -30 67 -7 0 -13 1 -13 3 0 1 -9 26 -20 55 -20 51
-20 52 0 52 10 0 31 -5 45 -12z m688 -26 c-3 -12 -9 -19 -14 -16 -5 3 -6 -2
-3 -10 4 -11 0 -16 -10 -16 -22 0 -20 19 6 47 25 27 29 26 21 -5z m-63 -192
c0 -25 4 -29 40 -35 23 -4 63 -22 90 -40 48 -33 50 -33 61 -14 13 26 68 59 85
52 8 -3 14 -13 14 -23 0 -10 8 -20 19 -23 14 -3 17 -11 14 -31 -4 -20 -13 -27
-39 -32 -30 -5 -34 -10 -34 -38 0 -17 -9 -48 -20 -69 -11 -20 -20 -45 -20 -55
0 -9 -10 -22 -22 -27 -26 -12 -38 -38 -13 -29 10 4 7 -3 -9 -20 -15 -14 -29
-26 -31 -26 -2 0 -5 19 -7 43 -3 37 -6 42 -30 45 -15 2 -35 -1 -45 -7 -12 -6
-24 -6 -38 2 -29 16 -85 16 -85 0 0 -7 -5 -13 -11 -13 -6 0 -9 -6 -7 -12 3 -7
-2 -19 -10 -27 -11 -11 -18 -12 -33 -3 -27 17 -39 15 -39 -9 0 -15 -5 -19 -16
-15 -8 3 -12 2 -9 -4 10 -16 -5 -12 -23 7 -12 12 -13 18 -5 20 9 3 6 11 -7 25
-14 15 -27 19 -52 15 -37 -5 -108 25 -108 46 0 16 -36 47 -55 47 -8 0 -15 -8
-15 -17 0 -24 -66 -118 -96 -138 -27 -17 -28 -15 -24 51 1 18 -6 38 -15 48
-14 14 -14 16 -1 16 8 0 27 -16 42 -35 15 -20 29 -33 32 -30 11 11 11 39 0 53
-8 9 -8 16 -1 20 7 5 6 18 -4 42 l-13 35 5 -32 c5 -36 0 -38 -39 -23 -18 6
-26 17 -26 33 0 46 21 63 209 163 58 31 85 31 99 -1 8 -16 23 -28 42 -31 16
-4 30 -10 30 -15 0 -5 7 -9 16 -9 14 0 14 3 4 15 -17 21 3 20 35 -1 26 -17 34
-7 13 15 -11 11 -10 12 2 6 8 -4 2 6 -14 23 l-29 31 32 -12 c20 -7 34 -21 38
-37 6 -24 7 -24 22 12 17 37 80 106 94 100 4 -2 7 -16 7 -32z m-672 13 c-2 -9
-8 -18 -15 -20 -7 -3 -9 3 -6 16 6 25 26 28 21 4z m-3 -185 c23 1 35 -15 28
-35 -5 -12 -7 -12 -14 -2 -12 19 -24 2 -24 -33 0 -17 -5 -33 -11 -35 -16 -5
-83 91 -81 115 1 19 3 19 42 5 22 -9 49 -15 60 -15z m1006 -120 c2 -20 1 -40
-3 -43 -12 -12 -29 35 -22 58 5 12 7 27 5 32 -2 7 1 7 7 0 6 -5 12 -27 13 -47z
m-963 -9 c-3 -8 -7 -3 -11 10 -4 17 -3 21 5 13 5 -5 8 -16 6 -23z m825 -140
c3 -11 15 -23 26 -26 35 -9 23 -24 -16 -20 -54 6 -88 61 -39 65 17 1 25 -5 29
-19z m-666 -44 c23 0 27 -4 25 -22 -2 -12 2 -24 8 -28 6 -3 8 -11 4 -16 -3 -5
-10 -7 -15 -4 -5 4 -9 2 -9 -4 0 -5 6 -12 13 -14 8 -4 7 -6 -3 -6 -8 -1 -25
18 -38 40 -26 46 -38 47 -21 3 6 -16 12 -46 14 -67 3 -34 1 -39 -29 -54 -18
-8 -38 -27 -43 -42 -9 -23 -11 -18 -11 34 0 33 3 69 8 80 5 11 9 16 9 12 1 -5
6 -5 11 -2 7 4 5 14 -5 28 -8 12 -15 36 -15 54 0 25 5 32 23 35 12 2 27 -4 34
-12 6 -8 24 -15 40 -15z m-157 -59 c0 -30 -2 -33 -25 -28 -29 5 -32 24 -8 51
22 26 33 18 33 -23z m860 -30 c0 -12 -5 -7 -19 24 -11 24 -11 24 3 6 9 -11 16
-24 16 -30z m-520 -21 c0 -10 -11 -15 -35 -15 -24 0 -35 -5 -35 -15 0 -18 12
-19 64 -4 36 10 41 9 57 -13 20 -26 16 -33 -23 -42 -23 -5 -25 -3 -21 15 4 15
2 20 -6 18 -7 -3 -13 -9 -13 -14 -1 -6 -8 -15 -17 -22 -14 -11 -13 -12 7 -13
22 0 31 -23 12 -35 -6 -4 -8 -10 -5 -14 2 -5 -19 -11 -48 -15 -28 -3 -62 -9
-73 -12 -17 -4 -25 1 -37 24 -14 29 -13 31 6 36 21 5 21 5 2 26 -16 18 -17 23
-5 30 8 6 25 10 38 10 13 0 22 6 22 16 0 9 -6 14 -12 11 -48 -17 -58 -18 -58
-3 0 9 3 16 8 17 4 1 36 7 72 14 90 17 100 17 100 0z m440 -17 c0 -18 -7 -42
-15 -52 -8 -11 -15 -14 -15 -8 0 7 -5 12 -11 12 -5 0 -8 -3 -5 -8 2 -4 -2 -16
-10 -27 -8 -10 -14 -13 -14 -6 0 7 -4 10 -9 6 -5 -3 -12 -1 -16 5 -4 7 -13 6
-27 -1 -19 -10 -20 -9 -13 7 4 11 8 30 9 43 1 20 10 28 51 42 70 25 75 24 75
-13z m28 -30 c-5 -24 -9 -52 -9 -63 0 -20 0 -20 -15 -1 -18 25 -18 40 1 56 8
7 15 23 15 37 0 13 4 22 9 19 5 -3 4 -24 -1 -48z m-809 33 c10 -7 11 -13 1
-31 -7 -12 -13 -51 -13 -85 -2 -49 2 -67 17 -84 28 -31 36 -26 37 22 l1 42 13
-55 c20 -77 19 -83 -7 -75 -35 11 -76 54 -84 88 -6 28 -8 29 -19 14 -7 -9 -22
-17 -34 -17 -11 0 -21 -5 -21 -11 0 -7 9 -9 24 -5 28 7 51 -16 42 -40 -6 -16
-8 -16 -20 1 -12 17 -16 17 -62 2 -37 -12 -50 -13 -56 -4 -13 21 -9 27 22 27
20 0 30 5 30 15 0 8 -8 15 -18 15 -10 0 -23 5 -29 11 -7 7 -14 1 -22 -22 -12
-34 -38 -69 -52 -69 -5 0 2 17 14 38 18 30 22 52 22 122 l0 85 40 -3 c22 -1
63 4 90 12 61 17 67 18 84 7z m915 -20 c-5 -23 -2 -29 18 -35 l23 -7 -22 -11
c-24 -12 -31 -38 -11 -38 9 0 9 -3 0 -12 -7 -7 -12 -39 -12 -75 l0 -64 -31 23
c-23 17 -27 24 -15 26 9 2 16 14 16 28 0 24 -1 24 -29 10 -26 -14 -30 -14 -35
1 -8 19 -10 17 36 36 26 11 36 20 32 31 -4 11 -12 13 -30 6 -23 -9 -24 -8 -24
35 0 35 4 45 16 45 12 0 15 -7 12 -25 -4 -17 -1 -25 8 -25 10 0 14 13 14 40 0
33 3 40 20 40 16 0 19 -5 14 -29z m-292 -45 c-10 -22 -6 -29 46 -78 31 -30 66
-59 77 -65 24 -14 20 -19 -25 -26 -34 -6 -36 -4 -72 53 -21 33 -41 60 -45 60
-4 0 -17 -17 -28 -37 -11 -21 -35 -48 -54 -60 -42 -28 -63 -30 -28 -3 32 25
83 125 92 181 l7 41 21 -20 c17 -18 19 -25 9 -46z m377 55 c10 -7 11 -13 1
-31 -12 -22 -11 -23 28 -16 22 3 46 8 54 11 7 2 21 -2 31 -9 17 -13 17 -18
-14 -105 -17 -50 -35 -91 -39 -91 -4 0 -15 9 -26 21 -10 11 -26 18 -36 16 -15
-4 -15 0 6 42 36 71 40 91 21 91 -11 0 -15 -5 -12 -14 6 -14 -50 -112 -59
-104 -2 3 5 26 17 52 25 58 19 70 -11 21 -27 -44 -36 -40 -17 7 8 19 18 54 22
77 7 43 11 46 34 32z m-853 -53 c-15 -49 -15 -49 -35 -36 -19 12 -19 13 7 30
32 21 32 21 28 6z m237 -112 c4 -10 -9 -15 -54 -18 -46 -3 -65 -10 -82 -27
l-22 -23 35 6 c18 3 37 12 41 18 5 8 14 7 33 -6 29 -18 32 -26 14 -44 -16 -16
-28 -15 -28 3 0 19 -20 19 -87 1 -64 -17 -78 -5 -37 31 l29 24 -47 -5 c-32 -4
-48 -2 -51 7 -3 8 30 17 107 28 145 21 143 21 149 5z"/>
<path d="M110 1562 c0 -14 8 -19 30 -19 18 0 30 6 30 14 0 7 5 13 10 13 6 0
10 -7 10 -15 0 -21 18 -19 23 3 4 13 5 13 6 2 1 -12 12 -16 49 -15 26 0 52 -3
58 -8 8 -5 11 0 10 16 -1 22 -3 23 -113 25 -104 2 -113 1 -113 -16z"/>
<path d="M945 1209 c10 -32 20 -42 38 -37 11 2 7 11 -16 32 -29 29 -29 29 -22
5z"/>
<path d="M935 890 c3 -5 14 -10 23 -10 15 0 15 2 2 10 -20 13 -33 13 -25 0z"/>
<path d="M1241 847 c-35 -12 -61 -41 -48 -53 4 -4 15 1 26 10 11 10 21 13 25
7 4 -5 -2 -12 -13 -16 -11 -3 -22 -13 -25 -21 -5 -13 -1 -15 20 -10 26 7 27 6
21 -28 -3 -20 -4 -36 -2 -36 14 0 45 79 45 116 0 48 0 48 -49 31z"/>
<path d="M505 650 c3 -5 8 -10 11 -10 2 0 4 5 4 10 0 6 -5 10 -11 10 -5 0 -7
-4 -4 -10z"/>
<path d="M698 318 c-4 -42 -28 -50 -28 -9 0 26 -4 31 -25 31 -22 0 -24 -2 -13
-19 10 -17 9 -24 -7 -42 l-20 -22 65 7 c69 7 95 20 61 31 -17 5 -19 10 -11 25
13 25 13 30 -4 30 -9 0 -16 -12 -18 -32z"/>
<path d="M320 368 c-30 -5 -58 -13 -61 -16 -4 -4 -9 -27 -13 -52 -6 -36 -5
-43 5 -32 7 6 21 12 31 12 10 0 18 7 18 15 0 9 -6 12 -17 8 -10 -3 0 8 22 24
28 21 44 27 52 21 15 -12 8 -28 -13 -28 -8 0 -14 -7 -14 -15 0 -8 6 -15 14
-15 8 0 21 -3 30 -6 13 -5 16 2 16 45 0 28 -3 50 -7 50 -5 -1 -33 -6 -63 -11z"/>
<path d="M325 261 c-6 -11 9 -23 19 -14 9 9 7 23 -3 23 -6 0 -12 -4 -16 -9z"/>
<path d="M275 250 c3 -5 10 -10 16 -10 5 0 9 5 9 10 0 6 -7 10 -16 10 -8 0
-12 -4 -9 -10z"/>
<path d="M1494 312 c4 -11 -6 -37 -24 -65 -28 -45 -25 -72 5 -47 17 14 47 108
39 121 -10 16 -25 9 -20 -9z"/>
</g>
</svg>
