<?xml version="1.0" standalone="no"?>
<!DOCTYPE svg PUBLIC "-//W3C//DTD SVG 20010904//EN"
 "http://www.w3.org/TR/2001/REC-SVG-20010904/DTD/svg10.dtd">
<svg version="1.0" xmlns="http://www.w3.org/2000/svg"
 width="170.000000pt" height="170.000000pt" viewBox="0 0 170.000000 170.000000"
 preserveAspectRatio="xMidYMid meet">
<metadata>
Created by potrace 1.11, written by Peter Selinger 2001-2013
</metadata>
<g transform="translate(0.000000,170.000000) scale(0.100000,-0.100000)"
fill="#000000" stroke="none">
<path d="M0 1312 c0 -425 1 -434 52 -385 15 15 28 32 28 39 0 7 8 18 18 24 16
11 16 11 -2 6 -17 -6 -18 -5 -4 16 14 21 13 26 -5 61 l-19 38 21 18 c23 20 28
60 9 79 -16 16 17 28 45 15 12 -6 36 -8 53 -6 26 4 35 0 53 -25 11 -17 21 -36
21 -43 0 -8 7 -6 20 6 19 18 20 17 20 -3 0 -29 15 -28 75 6 50 27 51 27 246
26 116 0 207 -5 225 -11 16 -6 50 -17 77 -23 26 -7 47 -18 47 -25 0 -8 27 -14
83 -18 45 -3 90 -8 100 -12 13 -6 17 -2 17 17 0 13 9 31 20 41 18 15 21 16 27
1 3 -8 0 -27 -8 -42 -7 -15 -12 -42 -10 -60 1 -18 -3 -56 -9 -83 -7 -27 -9
-65 -6 -84 7 -37 10 -37 81 -11 22 8 53 15 68 16 46 0 89 62 80 115 -3 21 -2
26 5 16 7 -9 10 2 10 35 1 46 -11 51 -21 9 -3 -11 -4 -2 -2 20 1 22 5 48 9 57
12 27 -7 92 -27 96 -9 2 -17 -2 -17 -8 0 -7 6 -10 13 -7 7 3 13 -5 13 -19 l2
-24 -19 24 c-24 31 -24 42 1 49 22 6 38 -10 49 -50 l8 -28 19 32 c10 18 23 33
27 33 5 0 6 -4 3 -8 -3 -5 8 -9 24 -10 16 0 32 4 35 9 4 5 18 9 32 9 23 0 25
-2 19 -35 -4 -20 -3 -35 2 -35 17 0 44 -50 35 -63 -5 -7 -15 -25 -21 -40 -12
-27 -11 -28 10 -21 13 3 20 3 16 -1 -4 -4 2 -19 12 -33 13 -16 20 -40 20 -68
0 -24 5 -44 10 -44 7 0 10 140 10 400 l0 400 -850 0 -850 0 0 -388z m358 241
l3 -43 -130 0 -131 0 0 45 0 46 128 -3 127 -3 3 -42z m302 -69 c3 -12 30 -42
62 -68 51 -41 59 -45 85 -35 18 6 39 6 54 1 20 -8 33 -2 81 35 32 25 58 55 60
67 4 29 42 29 46 -1 3 -18 -2 -23 -19 -23 -13 0 -43 -21 -75 -54 -46 -46 -51
-56 -39 -66 9 -8 78 -15 187 -21 95 -4 184 -11 198 -15 14 -3 42 -10 63 -15
20 -6 37 -15 37 -20 0 -6 -7 -8 -15 -5 -9 3 -18 -1 -21 -9 -4 -10 -12 -12 -30
-5 -58 22 -266 32 -563 27 -305 -5 -397 -15 -435 -46 -13 -11 -13 -9 -3 13 7
14 18 28 25 31 8 3 11 0 7 -8 -4 -6 0 -4 8 6 8 9 21 17 29 17 20 0 80 25 74
31 -2 2 53 4 122 3 100 -1 131 3 145 15 17 14 15 18 -35 68 -33 33 -61 53 -75
53 -16 0 -23 6 -23 18 0 38 40 43 50 6z m-510 -19 c0 -18 -5 -25 -20 -25 -15
0 -20 7 -20 25 0 18 5 25 20 25 15 0 20 -7 20 -25z m70 0 c0 -24 -15 -32 -35
-17 -13 9 -18 35 -5 27 5 -3 10 -1 10 4 0 6 7 11 15 11 9 0 15 -9 15 -25z m62
19 c10 -9 -4 -44 -18 -44 -15 0 -36 34 -27 44 8 7 38 8 45 0z m42 -22 c-16
-13 -17 -14 -1 -9 9 4 17 2 17 -3 0 -6 -9 -10 -20 -10 -13 0 -20 7 -20 18 0
24 8 32 27 25 14 -5 13 -8 -3 -21z m1041 -336 c8 -13 13 -31 9 -40 -9 -24 -39
-19 -58 9 -20 31 -10 32 21 3 22 -21 23 -21 23 -2 0 23 -18 44 -36 44 -22 0
-45 -31 -38 -52 4 -14 2 -18 -5 -14 -14 9 -14 32 -1 57 15 28 65 25 85 -5z
m-1 -132 c9 -8 16 -24 16 -34 0 -22 -26 -50 -46 -50 -21 0 -28 25 -16 57 10
28 10 27 11 -11 1 -33 3 -37 16 -26 18 15 19 42 3 58 -16 16 -33 15 -52 -4
-13 -12 -16 -13 -16 -1 0 7 3 17 7 20 12 13 62 7 77 -9z"/>
<path d="M110 1561 c0 -13 8 -18 29 -18 17 0 29 5 28 10 -4 18 21 18 26 0 4
-17 5 -17 6 0 1 19 31 24 31 5 0 -7 11 -13 25 -13 19 0 25 5 24 20 0 11 -3 14
-6 8 -6 -15 -33 -17 -33 -3 0 5 -29 9 -65 9 -55 -1 -65 -3 -65 -18z"/>
<path d="M290 1560 c0 -9 10 -16 23 -16 16 -1 23 4 23 16 0 12 -7 17 -23 16
-13 0 -23 -7 -23 -16z"/>
<path d="M330 1111 c-130 -43 -140 -49 -165 -106 -25 -55 -34 -81 -41 -121
l-5 -26 31 26 c17 14 35 26 39 26 12 0 51 36 46 42 -3 3 -1 17 4 32 12 31 6
32 -36 7 -19 -12 -34 -31 -38 -50 -4 -17 -11 -33 -16 -36 -14 -9 -10 16 10 61
14 32 28 45 61 58 23 9 40 19 37 22 -3 3 -19 -2 -36 -11 -26 -13 -31 -13 -31
-1 0 19 224 105 238 91 10 -10 -12 -24 -58 -35 -28 -7 -53 -16 -56 -21 -7 -12
-5 -12 50 7 26 9 50 14 53 11 10 -10 -18 -77 -37 -87 -29 -15 -32 -12 -25 21
7 29 6 31 -16 24 -32 -10 -49 -24 -49 -41 0 -8 -10 -24 -22 -36 l-21 -21 34 6
c19 4 47 10 63 13 26 6 28 5 21 -17 -20 -70 -40 -94 -90 -112 -54 -20 -61 -24
-53 -32 3 -3 28 3 57 14 53 22 66 14 39 -22 -10 -13 -149 -77 -167 -77 -2 0
-1 14 3 30 6 35 5 35 -34 15 -35 -18 -34 -20 -15 35 20 57 18 64 -5 15 -29
-62 -26 -79 10 -71 27 5 30 3 30 -19 0 -31 10 -31 69 -2 25 13 59 27 76 31 42
11 54 23 61 65 9 53 42 149 61 177 14 21 28 70 36 124 3 23 -23 21 -113 -9z
m16 -90 c-8 -12 -46 -21 -46 -11 0 9 18 18 38 19 7 1 11 -3 8 -8z m-20 -36
c-23 -17 -36 -19 -36 -6 0 5 8 12 18 14 32 9 37 6 18 -8z m-101 -5 c-9 -15
-45 -32 -45 -22 0 5 10 14 23 20 29 14 29 14 22 2z m-25 -50 c-24 -15 -37 -11
-16 5 11 8 22 12 25 9 3 -3 -1 -9 -9 -14z"/>
<path d="M645 1133 c17 -2 33 -8 37 -12 11 -10 -41 -163 -62 -181 -24 -21 -33
-50 -15 -50 18 0 18 -1 5 -34 -8 -21 -16 -26 -45 -26 -19 0 -35 2 -35 4 0 2 7
23 15 46 19 53 20 50 -11 50 -17 0 -24 5 -22 13 38 101 48 148 38 166 -17 32
-51 26 -84 -15 -22 -28 -27 -41 -19 -53 8 -12 3 -27 -24 -63 -25 -35 -32 -52
-25 -64 8 -15 10 -15 15 0 4 9 2 16 -4 16 -6 0 10 27 35 59 25 33 46 62 46 64
0 3 -9 3 -20 0 -23 -6 -28 15 -5 23 8 3 17 14 20 25 9 29 42 24 49 -8 6 -20 0
-36 -23 -68 -17 -23 -45 -82 -63 -131 -27 -72 -38 -90 -56 -92 -21 -3 -21 -3
-7 39 9 23 13 44 11 46 -6 7 -36 -89 -30 -98 8 -14 41 -10 58 6 8 8 26 15 40
15 15 0 30 8 36 20 11 21 11 21 29 -1 14 -18 24 -21 54 -15 40 7 52 29 42 75
-4 20 -2 30 8 34 18 7 70 158 65 189 -2 19 -9 23 -43 24 -29 1 -32 0 -10 -3z
m-140 -165 c-4 -13 -9 -31 -11 -40 -3 -10 -9 -18 -14 -18 -5 0 -8 6 -6 13 3 6
7 24 10 40 4 15 11 27 17 27 6 0 8 -9 4 -22z m-5 -104 c-18 -25 -34 -43 -37
-41 -7 8 46 87 58 87 5 0 -4 -21 -21 -46z m-34 -2 c-18 -16 -18 -16 -6 6 6 13
14 21 18 18 3 -4 -2 -14 -12 -24z"/>
<path d="M565 1119 c-11 -17 -2 -18 19 -3 17 12 17 14 4 14 -9 0 -20 -5 -23
-11z"/>
<path d="M737 1103 c-2 -5 -19 -53 -37 -108 -18 -55 -40 -112 -48 -127 -23
-40 -7 -52 51 -37 36 9 62 8 113 -1 76 -14 84 -10 89 47 2 21 13 68 24 103 12
36 21 77 21 92 0 34 -20 40 -115 35 l-70 -3 82 -2 c45 -1 85 -6 88 -12 3 -5
-6 -49 -21 -97 -15 -48 -28 -99 -29 -113 -3 -39 -4 -40 -30 -40 -31 0 -31 4 5
120 17 51 30 96 30 99 0 2 -9 -4 -21 -15 -12 -10 -24 -18 -27 -16 -4 2 -8 -1
-10 -7 -2 -6 4 -11 13 -11 12 0 15 -5 9 -22 -17 -57 -25 -68 -44 -68 -11 0
-20 -5 -20 -11 0 -6 9 -8 20 -4 18 6 19 3 13 -27 -7 -37 -14 -48 -20 -32 -2 7
-24 9 -58 6 -51 -4 -53 -3 -48 17 3 12 13 21 24 21 21 0 38 22 21 28 -26 8 -1
97 27 97 8 0 16 6 19 13 2 6 -3 12 -12 12 -9 0 -16 5 -16 10 0 6 19 10 43 11
80 2 98 17 21 18 l-70 1 -23 -72 c-31 -98 -61 -168 -72 -168 -5 0 -3 12 4 28
8 15 27 65 42 112 15 47 34 95 41 108 8 12 10 22 5 22 -5 0 -12 -3 -14 -7z"/>
<path d="M580 1084 c0 -11 8 -14 27 -12 39 4 42 28 4 28 -21 0 -31 -5 -31 -16z"/>
<path d="M970 1036 c-11 -25 -20 -58 -20 -75 0 -16 -5 -33 -11 -37 -6 -3 -8
-17 -5 -30 4 -14 2 -24 -4 -24 -5 0 -10 -11 -10 -24 0 -23 3 -24 100 -30 55
-4 104 -5 110 -1 5 3 10 19 10 35 0 16 5 32 11 35 6 4 8 14 5 22 -3 8 1 24 8
36 8 12 16 45 18 72 l3 50 -75 1 -75 1 68 -4 c76 -4 92 -23 20 -24 -52 -1 -49
-4 10 -14 34 -5 37 -8 31 -33 -9 -38 -13 -42 -29 -36 -10 4 -13 14 -9 30 5 21
3 24 -20 24 -21 0 -29 -7 -38 -30 -13 -38 -33 -34 -33 6 0 24 -4 29 -25 29
-17 0 -26 -6 -28 -20 -2 -11 -9 -24 -14 -30 -7 -7 -9 1 -4 25 7 40 22 51 53
43 14 -3 23 -1 23 6 0 6 -11 11 -25 11 -31 0 -33 17 -2 23 l22 4 -22 2 c-17 1
-27 -9 -43 -43z m47 -42 c-3 -3 -12 -4 -19 -1 -8 3 -5 6 6 6 11 1 17 -2 13 -5z
m103 -4 c0 -5 -9 -10 -20 -10 -11 0 -20 5 -20 10 0 6 9 10 20 10 11 0 20 -4
20 -10z m-105 -20 c3 -5 -3 -10 -15 -10 -12 0 -18 5 -15 10 3 6 10 10 15 10 5
0 12 -4 15 -10z m90 -10 c-3 -5 -10 -10 -16 -10 -5 0 -9 5 -9 10 0 6 7 10 16
10 8 0 12 -4 9 -10z m34 -26 c2 -2 2 -7 -2 -10 -9 -9 -177 6 -177 16 0 7 170
2 179 -6z m-68 -24 c42 0 69 -4 69 -11 0 -6 -25 -9 -65 -8 -43 1 -70 -2 -78
-11 -10 -10 1 -11 54 -6 68 6 79 1 79 -36 0 -12 -184 -7 -196 5 -5 4 5 19 21
32 29 23 29 24 8 25 -13 0 -23 5 -23 11 0 8 11 9 31 5 17 -3 62 -6 100 -6z"/>
<path d="M578 1043 c-10 -2 -18 -11 -18 -19 0 -22 54 -14 58 9 3 17 -6 19 -40
10z"/>
<path d="M543 975 c-8 -21 -3 -24 30 -18 15 3 27 12 27 19 0 19 -49 18 -57 -1z"/>
<path d="M756 974 c-8 -21 -8 -24 3 -24 5 0 11 9 14 20 6 24 -8 27 -17 4z"/>
<path d="M818 984 c-5 -4 -8 -16 -8 -28 0 -14 3 -17 11 -9 6 6 9 19 7 28 -1 9
-6 13 -10 9z"/>
<path d="M1565 963 c-54 -28 -67 -41 -60 -60 2 -7 0 -13 -5 -13 -6 0 -10 7
-10 15 0 16 -18 20 -35 7 -30 -22 -75 -86 -75 -107 0 -39 -18 -29 -22 12 -4
46 -21 52 -53 17 -19 -20 -25 -23 -25 -10 0 20 -48 22 -56 2 -3 -8 -15 -11
-30 -8 -17 3 -24 0 -24 -11 0 -22 -26 -41 -33 -24 -8 21 -114 21 -126 0 -6
-11 -10 -12 -15 -4 -4 6 -16 11 -27 11 -15 0 -19 -7 -19 -35 0 -30 3 -35 23
-35 17 0 26 9 36 35 8 24 19 35 32 35 18 0 19 -2 4 -30 -20 -39 -20 -40 15
-40 43 0 37 -18 -7 -22 -20 -2 -38 -9 -41 -16 -3 -10 4 -12 32 -7 20 4 36 3
36 -2 0 -19 -25 -33 -58 -33 -25 0 -35 -5 -39 -20 -3 -11 -14 -20 -25 -20 -16
0 -17 3 -8 20 10 18 8 20 -27 19 -34 0 -36 -2 -16 -11 12 -6 23 -19 26 -29 7
-27 57 -26 64 1 6 22 32 34 55 25 17 -7 48 19 48 38 0 31 22 89 31 80 6 -6 0
-32 -15 -69 -32 -77 -23 -98 37 -89 80 12 147 28 147 36 0 4 15 7 33 6 18 0
48 7 66 16 19 9 42 17 52 17 51 0 137 74 125 106 -6 16 -19 15 -58 -1 -13 -5
-15 -2 -11 15 3 12 24 30 49 42 30 13 44 27 44 39 0 19 0 19 -27 1 -16 -11
-39 -26 -53 -34 -23 -14 -56 -85 -46 -96 2 -2 22 6 45 18 40 20 53 14 33 -17
-8 -13 -102 -56 -109 -49 -2 2 6 34 19 71 19 55 30 72 61 91 20 14 37 31 37
38 0 8 3 22 7 32 7 18 7 18 -46 -4 -36 -14 5 21 51 44 l51 26 -7 -29 c-4 -15
-9 -36 -13 -47 -8 -29 13 -10 27 24 12 29 8 60 -7 60 -4 -1 -30 -13 -58 -27z
m-104 -71 c-5 -10 -17 -24 -25 -32 -9 -7 -16 -17 -16 -23 0 -5 8 -3 18 5 9 9
28 21 41 28 22 11 21 8 -10 -29 -48 -60 -62 -81 -55 -81 4 0 18 12 32 27 25
27 25 27 16 2 -9 -23 -33 -40 -79 -54 -30 -8 -29 6 2 43 17 20 21 32 13 34 -8
3 2 22 26 51 40 49 53 59 37 29z m86 -17 c-4 -8 -11 -15 -17 -15 -14 0 -13 27
3 33 16 6 21 1 14 -18z m-210 -55 c-3 -11 0 -20 6 -20 7 -1 6 -6 -3 -13 -9 -7
-22 -26 -29 -44 -18 -43 -27 -50 -85 -58 -52 -8 -52 -9 -29 53 3 6 -2 12 -10
12 -13 0 -64 -97 -55 -105 3 -3 106 11 146 20 20 5 22 3 13 -14 -6 -11 -19
-22 -28 -25 -35 -11 -148 -24 -155 -17 -3 3 4 31 17 61 13 30 24 61 25 67 0 7
9 27 21 45 16 25 20 28 16 11 -8 -34 19 -29 38 7 9 17 22 30 31 30 11 0 12 -4
4 -19 -14 -27 -13 -31 11 -31 13 0 23 10 30 30 12 34 45 43 36 10z m-217 -37
c0 -13 -43 -53 -57 -53 -10 0 -7 9 9 30 20 27 48 41 48 23z m-140 -29 c0 -14
-4 -23 -10 -19 -5 3 -10 15 -10 26 0 10 5 19 10 19 6 0 10 -12 10 -26z m363
-36 c-19 -50 -33 -69 -33 -46 0 24 29 88 40 88 5 0 2 -19 -7 -42z m97 17 c0
-21 -32 -75 -44 -75 -27 0 9 79 37 80 4 0 7 -2 7 -5z m-62 -46 c-6 -16 -12
-28 -14 -26 -5 5 13 57 20 57 3 0 0 -14 -6 -31z m-32 -20 c-8 -19 -15 -29 -15
-22 -1 18 19 67 25 61 3 -3 -2 -21 -10 -39z"/>
<path d="M1259 763 c-9 -2 -21 -15 -28 -29 -15 -33 -14 -34 8 -34 11 0 23 12
31 30 14 34 13 38 -11 33z"/>
<path d="M264 914 c-18 -15 -18 -15 6 -10 14 3 28 6 33 6 4 0 7 5 7 10 0 15
-24 12 -46 -6z"/>
<path d="M168 874 c-38 -20 -36 -38 2 -19 17 9 30 20 30 25 0 12 1 12 -32 -6z"/>
<path d="M263 877 c-22 -10 -31 -27 -15 -27 12 0 48 28 42 33 -3 2 -15 0 -27
-6z"/>
<path d="M148 824 c-38 -20 -36 -38 2 -19 17 9 30 20 30 25 0 12 1 12 -32 -6z"/>
<path d="M1682 833 c-6 -2 -10 -9 -7 -14 3 -5 1 -18 -5 -29 -10 -19 -10 -20 9
-8 12 7 21 23 21 35 0 13 -1 23 -2 22 -2 0 -9 -3 -16 -6z"/>
<path d="M843 755 l-18 -35 -38 26 c-34 23 -65 25 -52 3 4 -5 3 -9 -2 -9 -4 0
-6 -41 -3 -91 3 -50 1 -97 -3 -105 -5 -8 -23 -14 -46 -14 -29 0 -44 -7 -70
-34 l-32 -33 62 -7 c79 -8 218 -8 296 0 l61 7 -24 35 c-13 19 -24 39 -24 43 0
13 -54 38 -75 35 -10 -1 -23 -10 -30 -19 -11 -15 -16 -16 -51 -3 -33 13 -35
15 -14 16 14 1 19 4 13 7 -8 3 -13 24 -13 56 0 46 1 49 14 32 13 -18 14 -18 9
8 -4 20 -1 27 11 27 9 0 16 -4 16 -9 0 -5 7 -11 15 -15 18 -7 79 78 71 100 -3
7 -17 14 -30 14 -19 0 -30 -9 -43 -35z m-86 -157 c-2 -13 -4 -3 -4 22 0 25 2
35 4 23 2 -13 2 -33 0 -45z"/>
<path d="M316 731 c-16 -17 -18 -32 -14 -95 8 -121 50 -166 155 -166 35 0 50
6 71 27 l27 28 -66 7 c-37 3 -76 11 -87 17 -30 16 -85 130 -71 147 6 7 9 23 7
35 l-3 21 -19 -21z"/>
<path d="M927 723 c-4 -3 -7 -14 -7 -24 0 -9 -7 -19 -15 -23 -8 -3 -15 -11
-15 -18 0 -10 2 -10 8 -1 4 6 23 13 41 15 41 4 55 28 17 28 -18 0 -24 4 -20
15 6 16 2 20 -9 8z"/>
<path d="M1669 673 c-10 -18 -13 -41 -10 -63 5 -29 1 -40 -23 -66 -34 -36 -44
-89 -18 -99 15 -6 15 -8 -2 -21 -11 -8 -14 -14 -8 -14 7 0 12 -7 12 -15 0 -10
10 -15 31 -15 16 0 28 -4 24 -9 -3 -5 -1 -12 5 -16 6 -4 8 -11 5 -16 -4 -5 -1
-9 4 -9 7 0 11 61 11 185 0 102 -4 185 -8 185 -4 0 -15 -12 -23 -27z"/>
<path d="M260 646 c0 -49 24 -149 42 -169 l19 -22 -16 27 c-9 15 -19 56 -22
90 -6 62 -22 116 -23 74z"/>
<path d="M0 465 c0 -113 2 -135 15 -135 9 0 15 9 15 24 0 19 6 25 27 28 27 3
28 5 29 72 1 66 0 70 -37 107 -21 22 -41 39 -44 39 -3 0 -5 -61 -5 -135z"/>
<path d="M1293 567 c-26 -23 -36 -26 -52 -18 -11 6 -45 11 -75 11 -52 0 -56
-2 -56 -23 0 -13 -7 -32 -15 -43 -21 -28 -18 -34 16 -34 18 0 38 8 46 18 12
15 15 15 25 2 8 -13 23 -15 79 -9 37 4 77 13 88 19 24 12 51 60 51 90 0 32
-65 24 -107 -13z"/>
<path d="M390 409 c1 -32 17 -40 75 -37 78 4 83 23 9 33 -31 4 -63 9 -71 12
-7 3 -13 -1 -13 -8z"/>
<path d="M1213 403 c-30 -3 -43 -9 -43 -19 0 -24 124 -15 128 9 4 18 5 18 -85
10z"/>
</g>
</svg>
