<?xml version="1.0" standalone="no"?>
<!DOCTYPE svg PUBLIC "-//W3C//DTD SVG 20010904//EN"
 "http://www.w3.org/TR/2001/REC-SVG-20010904/DTD/svg10.dtd">
<svg version="1.0" xmlns="http://www.w3.org/2000/svg"
 width="700.000000pt" height="700.000000pt" viewBox="0 0 700.000000 700.000000"
 preserveAspectRatio="xMidYMid meet">
<metadata>
Created by potrace 1.11, written by Peter Selinger 2001-2013
</metadata>
<g transform="translate(0.000000,700.000000) scale(0.100000,-0.100000)"
fill="#000000" stroke="none">
<path d="M4755 6985 c-17 -8 -70 -30 -120 -50 -49 -20 -99 -40 -110 -45 -11
-4 -114 -47 -230 -94 -115 -46 -370 -150 -565 -229 -195 -80 -452 -184 -570
-232 -118 -48 -228 -93 -245 -100 -16 -7 -115 -48 -220 -90 -333 -135 -559
-227 -590 -240 -16 -7 -185 -76 -375 -153 -964 -392 -1170 -476 -1225 -505
-95 -50 -212 -173 -263 -278 -24 -48 -45 -99 -48 -115 -3 -16 -10 -47 -16 -69
-13 -46 -18 -4059 -6 -4185 21 -203 129 -380 303 -494 64 -42 168 -83 242 -95
37 -6 1075 -9 2818 -8 l2760 2 60 21 c266 92 443 302 471 558 9 82 11 4039 2
4141 -14 161 -79 298 -192 410 -111 109 -240 174 -380 192 -28 3 -934 6 -2013
6 -1080 1 -1963 2 -1963 3 0 1 26 12 58 24 31 13 71 29 87 36 44 19 206 84
590 238 187 75 349 141 360 146 11 5 137 56 280 114 143 57 391 157 550 221
160 65 335 135 390 157 55 22 114 46 130 53 17 7 89 36 160 65 72 29 132 54
134 56 2 1 -45 117 -103 258 -58 140 -106 259 -106 264 0 23 -26 31 -55 17z
m1411 -2984 l-1 -666 -332 -1 -333 0 0 333 0 333 -333 0 -333 0 0 -330 c1
-211 -3 -331 -9 -333 -5 -2 -905 -3 -2000 -3 l-1990 1 -1 660 c-1 363 0 663 2
666 2 3 1201 5 2666 5 l2664 0 0 -665z m-4133 -1356 c259 -51 491 -211 639
-440 69 -107 113 -215 140 -345 35 -167 17 -381 -45 -550 -113 -308 -424 -568
-747 -625 -73 -13 -98 -15 -195 -15 -447 0 -846 311 -960 751 -55 212 -31 466
63 668 67 144 220 323 345 405 230 150 496 203 760 151z"/>
</g>
</svg>
