<?xml version="1.0" encoding="UTF-8" standalone="no"?>
<!DOCTYPE svg PUBLIC "-//W3C//DTD SVG 1.1//EN"
 "http://www.w3.org/Graphics/SVG/1.1/DTD/svg11.dtd">
<!-- Generated by graphviz version 2.38.0 (20140413.2041)
 -->
<!-- Title: %3 Pages: 1 -->
<svg width="432pt" height="44pt"
 viewBox="0.00 0.00 431.58 44.00" xmlns="http://www.w3.org/2000/svg" xmlns:xlink="http://www.w3.org/1999/xlink">
<g id="graph0" class="graph" transform="scale(1 1) rotate(0) translate(4 40)">
<title>%3</title>
<polygon fill="white" stroke="none" points="-4,4 -4,-40 427.585,-40 427.585,4 -4,4"/>
<!-- share -->
<g id="node1" class="node"><title>share</title>
<ellipse fill="none" stroke="black" cx="29.2474" cy="-18" rx="29.4969" ry="18"/>
<text text-anchor="middle" x="29.2474" y="-14.3" font-family="Times,serif" font-size="14.00">share</text>
</g>
<!-- copy -->
<g id="node2" class="node"><title>copy</title>
<ellipse fill="none" stroke="black" cx="174.442" cy="-18" rx="27.8951" ry="18"/>
<text text-anchor="middle" x="174.442" y="-14.3" font-family="Times,serif" font-size="14.00">copy</text>
</g>
<!-- share&#45;&gt;copy -->
<g id="edge1" class="edge"><title>share&#45;&gt;copy</title>
<path fill="none" stroke="black" d="M58.5381,-18C80.6901,-18 111.701,-18 135.925,-18"/>
<polygon fill="black" stroke="black" points="136.182,-21.5001 146.182,-18 136.182,-14.5001 136.182,-21.5001"/>
<text text-anchor="middle" x="102.495" y="-21.8" font-family="Times,serif" font-size="14.00" fill="Red">YouTube</text>
</g>
<!-- paste -->
<g id="node3" class="node"><title>paste</title>
<ellipse fill="none" stroke="black" cx="267.987" cy="-18" rx="28.6953" ry="18"/>
<text text-anchor="middle" x="267.987" y="-14.3" font-family="Times,serif" font-size="14.00">paste</text>
</g>
<!-- copy&#45;&gt;paste -->
<g id="edge2" class="edge"><title>copy&#45;&gt;paste</title>
<path fill="none" stroke="Blue" d="M202.414,-18C210.753,-18 220.101,-18 229.038,-18"/>
<polygon fill="Blue" stroke="Blue" points="229.257,-21.5001 239.257,-18 229.257,-14.5001 229.257,-21.5001"/>
</g>
<!-- GO -->
<g id="node4" class="node"><title>GO</title>
<ellipse fill="none" stroke="black" cx="396.585" cy="-18" rx="27" ry="18"/>
<text text-anchor="middle" x="396.585" y="-14.3" font-family="Times,serif" font-size="14.00">GO</text>
</g>
<!-- paste&#45;&gt;GO -->
<g id="edge3" class="edge"><title>paste&#45;&gt;GO</title>
<path fill="none" stroke="black" d="M296.77,-18C315.032,-18 339.126,-18 358.95,-18"/>
<polygon fill="black" stroke="black" points="359.166,-21.5001 369.166,-18 359.166,-14.5001 359.166,-21.5001"/>
<text text-anchor="middle" x="333.085" y="-21.8" font-family="Times,serif" font-size="14.00" fill="Darkgreen">iframe</text>
</g>
</g>
</svg>
