<?xml version="1.0" encoding="UTF-8" standalone="no"?>
<!DOCTYPE svg PUBLIC "-//W3C//DTD SVG 1.1//EN"
 "http://www.w3.org/Graphics/SVG/1.1/DTD/svg11.dtd">
<!-- Generated by graphviz version 2.38.0 (20140413.2041)
 -->
<!-- Title: %3 Pages: 1 -->
<svg width="422pt" height="44pt"
 viewBox="0.00 0.00 422.00 44.00" xmlns="http://www.w3.org/2000/svg" xmlns:xlink="http://www.w3.org/1999/xlink">
<g id="graph0" class="graph" transform="scale(1 1) rotate(0) translate(4 40)">
<title>%3</title>
<polygon fill="white" stroke="none" points="-4,4 -4,-40 418,-40 418,4 -4,4"/>
<!-- share -->
<g id="node1" class="node"><title>share</title>
<polygon fill="Yellow" stroke="black" points="54,-36 0,-36 0,-0 54,-0 54,-36"/>
<text text-anchor="middle" x="27" y="-14.3" font-family="Times,serif" font-size="14.00">分享</text>
</g>
<!-- copy -->
<g id="node2" class="node"><title>copy</title>
<polygon fill="none" stroke="black" points="196,-36 142,-36 142,-0 196,-0 196,-36"/>
<text text-anchor="middle" x="169" y="-14.3" font-family="Times,serif" font-size="14.00">複製</text>
</g>
<!-- share&#45;&gt;copy -->
<g id="edge1" class="edge"><title>share&#45;&gt;copy</title>
<path fill="none" stroke="black" d="M54.0048,-18C75.7717,-18 107.083,-18 131.385,-18"/>
<polygon fill="black" stroke="black" points="131.659,-21.5001 141.659,-18 131.659,-14.5001 131.659,-21.5001"/>
<text text-anchor="middle" x="98" y="-21.8" font-family="Times,serif" font-size="14.00" fill="Red">YouTube</text>
</g>
<!-- paste -->
<g id="node3" class="node"><title>paste</title>
<polygon fill="Darkblue" stroke="black" points="287,-36 233,-36 233,-0 287,-0 287,-36"/>
<text text-anchor="middle" x="260" y="-14.3" font-family="Times,serif" font-size="14.00" fill="White">貼上</text>
</g>
<!-- copy&#45;&gt;paste -->
<g id="edge2" class="edge"><title>copy&#45;&gt;paste</title>
<path fill="none" stroke="Blue" d="M196.222,-18C204.551,-18 213.914,-18 222.816,-18"/>
<polygon fill="Blue" stroke="Blue" points="222.966,-21.5001 232.966,-18 222.966,-14.5001 222.966,-21.5001"/>
</g>
<!-- GO -->
<g id="node4" class="node"><title>GO</title>
<polygon fill="none" stroke="black" points="414,-36 360,-36 360,-0 414,-0 414,-36"/>
<text text-anchor="middle" x="387" y="-14.3" font-family="Times,serif" font-size="14.00">去片</text>
</g>
<!-- paste&#45;&gt;GO -->
<g id="edge3" class="edge"><title>paste&#45;&gt;GO</title>
<path fill="none" stroke="black" d="M287.204,-18C305.371,-18 329.799,-18 349.82,-18"/>
<polygon fill="black" stroke="black" points="349.83,-21.5001 359.83,-18 349.83,-14.5001 349.83,-21.5001"/>
<text text-anchor="middle" x="323.5" y="-21.8" font-family="Times,serif" font-size="14.00" fill="Darkgreen">iframe</text>
</g>
</g>
</svg>
