<svg xmlns="http://www.w3.org/2000/svg" width="700" height="700" viewBox="0 0 700 700" version="1.1">
	<path d="M 295 59.115 C 206.247 61.798, 152.295 65.361, 129.043 70.073 C 114.084 73.104, 110.191 74.163, 98.457 78.391 C 91.654 80.842, 79.939 87.013, 71 92.854 C 60.240 99.885, 41.268 118.792, 34.500 129.229 C 29.539 136.879, 28 138.369, 28 135.519 C 28 132.719, 18.088 119.290, 9.092 109.902 L 0.082 100.500 0.041 340.750 C 0.019 472.887, 0.337 580.994, 0.750 580.986 C 1.498 580.973, 9.306 573.071, 16.060 565.492 C 18.018 563.295, 21.275 558.911, 23.298 555.749 C 25.320 552.587, 27.550 550, 28.253 550 C 28.956 550, 31.369 552.813, 33.616 556.250 C 42.488 569.826, 57.137 584.117, 72.500 594.184 C 80.551 599.459, 95.101 606.942, 99.500 608.070 C 101.150 608.493, 104.975 609.715, 108 610.787 C 133.647 619.870, 199.011 624.918, 319 627.081 C 380.136 628.184, 473.934 627.205, 520 624.985 C 617.713 620.276, 645.480 615.921, 673.718 600.878 C 684.817 594.965, 698.812 584.625, 700.021 581.444 C 701.017 578.826, 701.343 98.265, 700.348 100.720 C 700.002 101.572, 699.195 101.322, 697.677 99.894 C 692.801 95.309, 679.338 86.614, 670.172 82.132 C 642.588 68.643, 617.794 65.078, 524 61.117 C 453.158 58.125, 355.872 57.274, 295 59.115 M 0.492 341 C 0.492 473.275, 0.608 527.387, 0.750 461.250 C 0.892 395.112, 0.892 286.887, 0.750 220.750 C 0.608 154.612, 0.492 208.725, 0.492 341 M 288.500 176.980 C 236.012 178.631, 189.140 181.071, 172 183.044 C 130.419 187.832, 129.785 188.380, 124.633 224 C 113.131 303.518, 113.111 385.481, 124.576 463.500 C 127.817 485.560, 128.200 486.945, 132.358 491.669 C 138.357 498.485, 142.046 499.555, 170 502.593 C 190.706 504.844, 239.517 507.449, 290 508.997 C 383.108 511.854, 534.242 508.600, 588 502.581 C 614.420 499.623, 618.477 498.499, 624.275 492.529 C 629 487.664, 630.603 481.399, 634.387 453 C 640.246 409.044, 641.241 390.414, 640.720 334.500 C 640.189 277.507, 638.010 248.994, 631.413 212.730 C 630.636 208.456, 630 203.996, 630 202.818 C 630 199.660, 625.580 192.672, 621.800 189.852 C 619.985 188.498, 616.661 186.856, 614.413 186.204 C 604.953 183.458, 570.330 180.816, 506 177.932 C 476.908 176.628, 321.348 175.947, 288.500 176.980 M 299 190.879 C 292.724 192.576, 284.172 196.389, 279.672 199.495 C 273.066 204.055, 264.684 213.933, 261 221.500 C 253.684 236.524, 254 231.026, 254 343.366 C 254 432.457, 254.187 444.937, 255.615 451.303 C 259.595 469.045, 270.691 483.431, 286.500 491.350 C 296.603 496.410, 300.918 497.425, 312.500 497.463 C 328.282 497.516, 331.941 496.193, 359.500 480.466 C 368.300 475.444, 376.400 470.827, 377.500 470.206 C 378.600 469.586, 385.034 465.911, 391.798 462.039 C 398.562 458.168, 404.309 455, 404.568 455 C 404.828 455, 406.901 453.825, 409.176 452.389 C 411.452 450.952, 415.155 448.772, 417.407 447.543 C 419.658 446.314, 425.945 442.764, 431.378 439.654 C 436.811 436.544, 441.445 434, 441.676 434 C 441.907 434, 444.558 432.425, 447.567 430.500 C 450.577 428.575, 453.220 427, 453.441 427 C 453.661 427, 457.815 424.695, 462.671 421.877 C 471.011 417.038, 482.566 410.468, 491.500 405.484 C 515.952 391.845, 520.755 388.387, 527.598 379.500 C 541.227 361.800, 543.613 338.772, 533.953 318.160 C 530.730 311.281, 528.522 308.254, 522.235 302.092 C 517.974 297.916, 513.141 293.831, 511.494 293.014 C 509.847 292.197, 505.680 289.835, 502.232 287.764 C 498.785 285.694, 495.756 284, 495.500 284 C 495.244 284, 492.094 282.200, 488.500 280 C 484.906 277.800, 481.739 276, 481.463 276 C 481.186 276, 479.282 274.946, 477.230 273.658 C 475.179 272.369, 470.800 269.820, 467.500 267.993 C 464.200 266.166, 459.475 263.549, 457 262.177 C 454.525 260.805, 450.821 258.629, 448.770 257.341 C 446.718 256.053, 444.814 255, 444.537 255 C 444.261 255, 441.094 253.200, 437.500 251 C 433.906 248.800, 430.739 247, 430.463 247 C 430.186 247, 428.282 245.946, 426.230 244.658 C 424.179 243.369, 419.800 240.820, 416.500 238.993 C 413.200 237.166, 408.475 234.549, 406 233.177 C 403.525 231.805, 399.821 229.629, 397.770 228.341 C 395.718 227.053, 393.797 226, 393.500 226 C 393.203 226, 391.282 224.946, 389.230 223.658 C 387.179 222.369, 382.800 219.820, 379.500 217.993 C 376.200 216.166, 371.475 213.549, 369 212.177 C 366.525 210.805, 362.821 208.629, 360.770 207.341 C 358.718 206.053, 356.814 205, 356.537 205 C 356.261 205, 353.215 203.289, 349.768 201.198 C 330.963 189.790, 315.012 186.547, 299 190.879 M 1.762 699.707 C 3.006 699.946, 4.806 699.937, 5.762 699.687 C 6.718 699.437, 5.700 699.241, 3.500 699.252 C 1.300 699.263, 0.518 699.468, 1.762 699.707 M 12.750 699.737 C 15.638 699.939, 20.363 699.939, 23.250 699.737 C 26.138 699.535, 23.775 699.370, 18 699.370 C 12.225 699.370, 9.863 699.535, 12.750 699.737 " stroke="none" fill="black" fill-rule="evenodd"/>
</svg>