<?xml version="1.0" standalone="no"?>
<!DOCTYPE svg PUBLIC "-//W3C//DTD SVG 20010904//EN"
 "http://www.w3.org/TR/2001/REC-SVG-20010904/DTD/svg10.dtd">
<svg version="1.0" xmlns="http://www.w3.org/2000/svg"
 width="170.000000pt" height="170.000000pt" viewBox="0 0 170.000000 170.000000"
 preserveAspectRatio="xMidYMid meet">
<metadata>
Created by potrace 1.11, written by Peter Selinger 2001-2013
</metadata>
<g transform="translate(0.000000,170.000000) scale(0.100000,-0.100000)"
fill="#000000" stroke="none">
<path d="M0 1385 c0 -173 4 -315 8 -315 16 0 130 110 167 160 20 27 53 80 73
117 33 60 41 68 68 69 17 0 36 4 43 8 12 8 16 172 4 179 -5 3 -6 -17 -5 -44
l4 -49 -131 0 -131 0 0 44 c0 55 2 56 134 54 78 -2 101 1 110 14 7 10 17 13
31 7 42 -16 110 -9 162 16 l51 26 37 -26 c49 -33 106 -33 163 0 40 23 46 24
65 10 25 -18 67 -19 100 -4 19 9 30 7 58 -10 41 -25 89 -27 135 -5 31 15 36
15 73 -3 30 -13 42 -26 47 -48 33 -150 180 -331 360 -443 58 -36 64 -38 64
-17 0 9 -21 28 -46 43 -26 15 -51 32 -58 37 -6 6 -28 23 -48 39 -21 16 -35 33
-31 40 3 6 3 8 -2 4 -14 -13 -109 98 -147 171 -17 33 -20 45 -10 48 9 3 11 16
7 41 -5 31 -3 28 14 -17 12 -30 29 -64 39 -75 11 -12 22 -28 26 -36 17 -37 35
-60 84 -109 30 -29 56 -51 58 -48 3 3 -18 45 -46 93 -28 49 -55 107 -61 129
-6 22 -14 45 -17 50 -12 18 -31 99 -32 133 l0 32 -70 0 c-58 0 -68 -3 -64 -15
4 -9 14 -14 23 -13 11 2 17 -6 19 -24 2 -16 -1 -28 -7 -28 -6 0 -1 -21 10 -47
13 -31 16 -50 10 -56 -7 -7 -12 -4 -17 9 -3 10 -10 30 -15 44 -5 14 -8 35 -7
47 2 12 -1 21 -7 20 -5 -1 -12 12 -15 28 l-5 30 -638 3 -637 2 0 -315z m1350
226 c0 -6 -4 -13 -10 -16 -5 -3 -10 1 -10 9 0 9 5 16 10 16 6 0 10 -4 10 -9z
m-1195 -131 c7 -11 -8 -42 -20 -42 -10 0 -25 23 -25 40 0 14 36 16 45 2z m65
-15 c0 -14 -6 -25 -12 -25 -17 0 -47 20 -31 20 7 0 10 7 7 15 -4 10 0 15 15
15 16 0 21 -6 21 -25z m65 -2 c1 -13 -2 -23 -6 -23 -21 0 -39 14 -39 32 0 29
43 20 45 -9z m65 -3 c0 -12 -8 -17 -25 -17 -23 0 -35 24 -19 39 11 12 44 -5
44 -22z"/>
<path d="M1440 1660 c0 -40 0 -40 38 -40 l39 0 12 -57 c20 -89 49 -171 89
-252 41 -84 54 -80 23 7 -12 32 -21 77 -21 100 0 22 -4 44 -10 47 -5 3 -10 44
-10 89 0 46 -3 98 -6 115 l-6 31 -74 0 -74 0 0 -40z"/>
<path d="M1610 1645 c0 -30 5 -55 10 -55 6 0 10 25 10 55 0 30 -4 55 -10 55
-5 0 -10 -25 -10 -55z"/>
<path d="M1644 1603 c6 -88 13 -137 44 -308 7 -37 10 7 11 178 l1 227 -31 0
-32 0 7 -97z"/>
<path d="M120 1563 c0 -12 8 -18 25 -18 17 0 25 6 25 18 0 12 -8 17 -25 17
-17 0 -25 -5 -25 -17z m37 1 c-3 -3 -12 -4 -19 -1 -8 3 -5 6 6 6 11 1 17 -2
13 -5z"/>
<path d="M186 1572 c6 -4 13 -14 16 -22 3 -10 6 -8 10 8 5 18 2 22 -15 22 -13
0 -17 -3 -11 -8z"/>
<path d="M230 1564 c0 -16 8 -19 53 -19 44 -1 53 2 53 17 0 12 -4 14 -12 7 -8
-7 -14 -6 -17 3 -4 11 -8 11 -26 0 -18 -10 -26 -10 -37 -1 -11 9 -14 8 -14 -7z"/>
<path d="M388 1263 c-34 -4 -38 -7 -43 -41 -4 -20 -9 -49 -11 -64 -3 -14 0
-29 6 -33 5 -3 8 -11 5 -16 -7 -10 -10 -10 111 -10 47 -1 90 3 94 8 12 12 31
136 22 144 -9 9 -137 17 -184 12z m92 -33 c-19 -12 -90 -13 -90 -2 0 5 24 9
52 10 36 1 48 -2 38 -8z m26 -48 c-12 -11 -18 7 -10 30 l8 23 4 -23 c2 -13 1
-26 -2 -30z m-104 13 c0 -5 -5 -11 -11 -13 -6 -2 -11 4 -11 13 0 9 5 15 11 13
6 -2 11 -8 11 -13z m-3 -55 c-8 -6 -6 -9 7 -13 13 -3 11 -5 -8 -6 -30 -1 -31
0 -22 23 3 8 12 12 21 9 11 -4 12 -8 2 -13z m101 3 c0 -7 7 -13 15 -13 8 0 15
-4 15 -9 0 -15 -35 -1 -47 18 -9 14 -8 18 3 18 8 0 14 -6 14 -14z m-27 -20
c-7 -2 -19 -2 -25 0 -7 3 -2 5 12 5 14 0 19 -2 13 -5z"/>
<path d="M603 1255 c-7 -8 -13 -19 -13 -25 0 -11 8 -12 85 -12 28 0 42 -2 32
-5 -13 -3 -17 -13 -15 -31 2 -15 -3 -32 -10 -37 -7 -6 -10 -18 -6 -28 5 -14
19 -17 73 -17 l67 0 3 49 c2 45 0 50 -26 59 l-28 10 31 1 c30 1 51 21 37 35
-11 10 -129 6 -140 -5 -7 -7 -15 -6 -26 5 -19 20 -48 20 -64 1z"/>
<path d="M1105 1238 c-28 -170 -35 -207 -41 -231 -6 -27 -5 -28 27 -25 30 3
36 8 49 46 13 37 18 42 45 42 30 0 30 -1 27 -46 l-4 -45 33 3 c33 3 34 4 41
59 4 30 8 62 10 69 2 10 -10 14 -47 16 -88 2 -96 4 -90 15 7 11 144 7 164 -5
7 -5 11 5 11 28 0 31 -3 36 -24 36 -14 0 -28 5 -31 10 -3 6 -1 10 4 10 17 0
13 37 -5 44 -31 12 -54 6 -54 -13 0 -33 -11 -51 -32 -51 -17 0 -20 5 -15 29 6
31 -5 41 -43 41 -14 0 -21 -9 -25 -32z"/>
<path d="M855 1198 c-4 -35 -11 -65 -15 -68 -7 -4 -14 -93 -11 -137 1 -9 19
-13 55 -13 42 0 55 4 61 18 6 16 7 16 19 0 8 -12 27 -18 50 -18 35 0 49 14 24
23 -10 3 -7 15 10 45 39 71 34 79 -55 81 -101 3 -109 11 -11 11 l75 0 7 33 c3
17 9 44 12 60 l6 27 -110 0 -110 0 -7 -62z m209 28 c-5 -12 -20 -16 -69 -16
-35 0 -66 4 -70 9 -3 5 23 9 62 9 44 -1 68 3 71 11 2 7 6 10 8 8 3 -2 2 -12
-2 -21z m-14 -48 c0 -10 -18 -12 -70 -10 -87 4 -84 17 4 20 48 2 66 -1 66 -10z
m-112 -96 c-31 -4 -32 -5 -18 -33 9 -15 7 -19 -8 -19 -13 0 -18 7 -17 28 0 30
19 42 50 33 17 -5 16 -6 -7 -9z m112 7 c0 -4 -16 -9 -35 -11 -35 -4 -50 8 -17
14 28 6 52 4 52 -3z"/>
<path d="M590 1185 c0 -10 10 -15 33 -15 18 0 38 -5 45 -12 9 -9 12 -6 10 15
-2 25 -6 27 -45 27 -32 0 -43 -4 -43 -15z"/>
<path d="M582 1138 c6 -16 70 -16 76 0 2 8 -10 12 -38 12 -29 0 -40 -4 -38
-12z"/>
<path d="M576 1093 c-3 -10 -8 -39 -10 -65 l-5 -48 45 0 c24 0 44 5 44 11 0 5
-5 7 -12 3 -7 -5 -8 -3 -3 7 5 7 10 20 12 29 1 8 5 30 9 48 6 32 6 32 -34 32
-30 0 -42 -5 -46 -17z m44 -37 c0 -8 -4 -18 -10 -21 -5 -3 -10 3 -10 14 0 12
5 21 10 21 6 0 10 -6 10 -14z"/>
<path d="M666 1053 c-12 -74 -13 -73 58 -73 36 0 67 3 69 8 3 4 8 28 11 55 l7
47 -69 0 -69 0 -7 -37z m84 -13 c0 -5 -10 -10 -22 -10 -19 0 -20 2 -8 10 19
13 30 13 30 0z"/>
<path d="M326 1053 c4 -16 9 -31 11 -35 6 -12 43 -10 43 2 0 6 16 10 35 10 19
0 35 -4 35 -10 0 -5 -13 -10 -30 -10 -22 0 -28 -4 -24 -15 5 -11 22 -15 69
-15 60 0 63 1 68 28 3 15 3 29 0 32 -2 3 -32 8 -66 11 -57 6 -56 7 16 4 61 -2
77 0 77 11 0 11 -24 14 -120 14 l-120 0 6 -27z"/>
<path d="M0 921 c0 -66 4 -100 10 -96 5 3 10 1 10 -5 0 -6 9 -2 21 9 15 14 19
25 14 43 -4 12 -12 26 -17 29 -5 3 -12 29 -17 58 -13 84 -21 71 -21 -38z"/>
<path d="M210 1004 c0 -8 5 -12 10 -9 6 4 8 11 5 16 -9 14 -15 11 -15 -7z"/>
<path d="M548 943 c-49 -2 -88 -8 -88 -13 0 -6 13 -10 29 -10 47 0 46 -19 -1
-22 -24 -2 -42 -7 -40 -13 2 -5 16 -9 32 -7 15 2 31 -2 35 -7 4 -7 -7 -11 -28
-11 -37 0 -47 -15 -47 -72 0 -24 4 -28 30 -28 17 0 30 -4 30 -9 0 -4 -8 -8
-17 -8 -39 0 -53 -3 -53 -13 0 -5 13 -10 29 -10 17 0 33 -4 36 -10 4 -6 -10
-10 -34 -10 -34 0 -41 -3 -41 -20 0 -19 7 -20 114 -20 95 0 115 3 120 16 3 9
6 18 6 20 0 2 -23 4 -51 4 -34 0 -48 4 -43 11 3 6 24 9 45 7 23 -2 39 1 39 7
0 6 -8 12 -17 13 -64 7 -77 18 -29 24 20 2 36 0 36 -6 0 -27 18 14 23 51 5 46
-2 53 -55 53 -17 0 -28 3 -25 7 10 9 67 10 67 1 0 -5 7 -8 15 -8 8 0 15 9 15
20 0 17 -7 20 -45 20 -26 0 -45 5 -45 11 0 7 16 9 45 7 32 -4 46 -1 50 9 8 22
7 23 -22 21 -16 -1 -67 -4 -115 -5z m-38 -153 c0 -5 -2 -10 -4 -10 -3 0 -8 5
-11 10 -3 6 -1 10 4 10 6 0 11 -4 11 -10z m80 0 c0 -5 -2 -10 -4 -10 -3 0 -8
5 -11 10 -3 6 -1 10 4 10 6 0 11 -4 11 -10z"/>
<path d="M784 900 c-8 -58 -19 -66 -19 -13 0 31 -3 37 -26 40 -24 3 -27 -1
-33 -34 -12 -74 -9 -82 30 -89 30 -6 35 -10 30 -28 -3 -11 -6 -29 -6 -38 0
-10 -4 -18 -8 -18 -4 0 -6 16 -4 36 4 35 4 35 -29 32 -32 -3 -34 -6 -42 -52
-12 -76 -12 -76 108 -76 104 0 106 0 115 26 6 14 10 43 10 65 0 36 -2 39 -29
39 -29 0 -41 -14 -41 -51 0 -10 -4 -19 -9 -19 -5 0 -5 16 0 38 5 20 9 41 9 46
0 4 11 6 25 4 14 -3 25 -1 25 6 0 6 4 4 9 -3 10 -16 13 -8 26 71 5 34 3 38
-19 44 -32 8 -46 -1 -46 -29 0 -12 -4 -28 -9 -35 -5 -8 -6 8 -3 37 l5 51 -31
0 c-30 0 -32 -2 -38 -50z"/>
<path d="M950 938 c0 -33 13 -59 27 -54 8 3 11 1 8 -4 -3 -6 3 -10 14 -10 12
0 21 4 21 9 0 5 11 11 25 13 20 4 25 2 21 -11 -3 -9 -7 -43 -11 -77 -8 -72
-15 -86 -46 -88 -18 -1 -25 -8 -27 -28 l-3 -28 85 0 85 0 -3 28 c-2 18 -10 28
-23 30 -18 3 -19 7 -11 55 4 29 11 67 14 85 4 28 9 32 34 32 25 0 30 4 30 25
0 25 -1 25 -85 25 -74 0 -85 -2 -85 -17 0 -10 -5 -25 -11 -33 -7 -11 -9 -6 -7
20 3 32 0 35 -24 38 -18 2 -28 -1 -28 -10z"/>
<path d="M1200 916 c0 -25 4 -36 15 -36 15 0 19 11 16 40 -2 13 -1 13 9 0 9
-13 11 -12 8 5 -2 12 -12 21 -26 23 -19 3 -22 -1 -22 -32z"/>
<path d="M1267 920 c-10 -18 -14 -44 -10 -64 4 -25 1 -35 -12 -40 -10 -3 -21
-3 -24 0 -3 4 0 9 7 11 19 7 15 42 -5 38 -10 -2 -21 -4 -25 -4 -5 -1 -8 -14
-8 -30 0 -21 6 -30 21 -34 20 -5 21 -10 15 -66 l-7 -61 29 0 c16 0 44 -3 62
-7 31 -6 33 -5 27 18 l-6 24 19 -22 c15 -19 50 -32 50 -19 0 2 9 61 20 132 11
71 20 132 20 137 0 4 -22 7 -50 7 -43 0 -50 -3 -50 -20 0 -11 -4 -20 -10 -20
-5 0 -9 10 -7 22 4 38 -37 36 -56 -2z m110 -32 c-3 -8 -6 -5 -6 6 -1 11 2 17
5 13 3 -3 4 -12 1 -19z m-52 -55 c-4 -27 -11 -55 -17 -63 -7 -11 -8 -9 -4 10
2 14 8 42 11 63 10 54 19 46 10 -10z m-58 -100 c-3 -10 -5 -2 -5 17 0 19 2 27
5 18 2 -10 2 -26 0 -35z m93 0 c0 -21 -3 -24 -9 -14 -5 8 -7 20 -4 28 8 21 13
15 13 -14z m-54 -20 c-10 -10 -19 5 -10 18 6 11 8 11 12 0 2 -7 1 -15 -2 -18z"/>
<path d="M1657 924 c-3 -4 -1 -12 7 -18 9 -7 11 -19 6 -36 -5 -16 -8 -19 -9
-7 -1 17 -41 25 -41 8 0 -14 41 -41 62 -41 13 0 17 8 15 40 -1 24 -6 40 -13
40 -7 0 -14 5 -16 11 -2 5 -7 7 -11 3z"/>
<path d="M940 848 c0 -35 15 -52 39 -45 14 3 21 0 21 -9 0 -8 -6 -14 -12 -13
-29 4 -39 -3 -53 -37 -23 -56 -20 -84 9 -84 21 0 25 5 24 30 -1 18 6 36 16 43
26 19 33 98 11 120 -25 25 -55 22 -55 -5z"/>
<path d="M1172 729 c-16 -68 -16 -69 13 -69 23 0 25 4 25 44 0 24 3 51 6 60 4
11 0 16 -13 16 -15 0 -22 -11 -31 -51z"/>
<path d="M765 620 c3 -5 8 -10 11 -10 2 0 4 5 4 10 0 6 -5 10 -11 10 -5 0 -7
-4 -4 -10z"/>
<path d="M1431 614 c0 -11 3 -14 6 -6 3 7 2 16 -1 19 -3 4 -6 -2 -5 -13z"/>
<path d="M1456 621 c-3 -5 1 -11 9 -15 8 -3 15 -1 15 4 0 13 -18 22 -24 11z"/>
<path d="M820 593 c0 -13 -3 -14 -12 -5 -7 7 -16 12 -20 12 -15 0 -8 -20 13
-41 23 -23 24 -17 -23 -111 -12 -26 9 -23 23 3 14 28 25 15 37 -46 8 -37 8
-52 -1 -58 -8 -5 -5 -7 8 -5 16 2 21 12 23 43 1 22 6 47 9 55 9 23 10 32 2 63
-7 24 -5 27 14 26 40 -4 67 1 67 11 0 6 -11 10 -24 10 -39 0 -77 19 -83 40 -6
24 -33 27 -33 3z"/>
</g>
</svg>
