<?xml version="1.0" standalone="no"?>
<!DOCTYPE svg PUBLIC "-//W3C//DTD SVG 20010904//EN"
 "http://www.w3.org/TR/2001/REC-SVG-20010904/DTD/svg10.dtd">
<svg version="1.0" xmlns="http://www.w3.org/2000/svg"
 width="170.000000pt" height="170.000000pt" viewBox="0 0 170.000000 170.000000"
 preserveAspectRatio="xMidYMid meet">
<metadata>
Created by potrace 1.11, written by Peter Selinger 2001-2013
</metadata>
<g transform="translate(0.000000,170.000000) scale(0.100000,-0.100000)"
fill="#000000" stroke="none">
<path d="M233 1688 c-2 -5 24 -8 58 -8 34 0 60 3 56 6 -9 9 -108 10 -114 2z"/>
<path d="M553 1689 c-10 -4 82 -8 205 -8 136 -1 222 3 222 9 0 11 -398 10
-427 -1z"/>
<path d="M1130 1689 c0 -5 10 -9 22 -9 12 0 18 3 14 7 -10 11 -36 12 -36 2z"/>
<path d="M1180 1690 c0 -5 14 -10 30 -10 17 0 30 5 30 10 0 6 -13 10 -30 10
-16 0 -30 -4 -30 -10z"/>
<path d="M1256 1692 c-2 -4 18 -8 45 -9 27 -1 49 2 49 7 0 10 -88 12 -94 2z"/>
<path d="M1487 1687 c-7 -4 14 -7 46 -5 31 1 57 5 57 9 0 9 -89 6 -103 -4z"/>
<path d="M1630 1688 c0 -4 11 -8 25 -8 21 0 25 -5 25 -31 0 -38 17 -30 18 10
1 26 -3 29 -34 33 -19 2 -34 0 -34 -4z"/>
<path d="M9 1656 c9 -11 9 -15 -1 -19 -10 -4 -11 -7 -1 -18 8 -8 13 -9 13 -2
0 6 3 18 6 26 3 8 -2 17 -12 21 -14 5 -15 4 -5 -8z"/>
<path d="M40 1391 l0 -279 33 8 c52 13 66 21 60 36 -3 8 -9 14 -15 14 -5 0 -7
-4 -4 -8 3 -5 -1 -9 -7 -9 -9 0 -12 11 -9 30 3 19 1 27 -5 24 -6 -4 -13 7 -17
24 -3 17 -10 28 -15 25 -5 -3 -4 10 2 29 7 25 13 32 20 23 6 -9 7 -4 4 15 -2
15 -1 27 3 27 4 0 7 8 6 18 -1 15 13 17 138 20 82 1 145 7 153 14 9 7 13 39
13 104 0 94 0 95 28 106 15 6 44 11 64 11 20 1 35 4 33 7 -2 3 7 5 20 5 13 0
21 -4 18 -9 -3 -4 5 -5 18 0 40 13 88 12 82 -2 -7 -18 18 -29 31 -13 14 19 44
18 56 -1 7 -10 10 -11 10 -2 0 17 62 11 77 -8 11 -13 14 -13 22 -1 6 9 28 15
60 15 28 1 51 3 51 6 0 10 93 9 111 -1 15 -8 19 -6 19 8 0 15 2 15 9 4 7 -10
14 -12 23 -5 21 15 209 6 220 -10 5 -7 8 -4 8 7 0 19 8 21 30 7 9 -6 17 -5 22
3 6 9 10 9 16 0 8 -13 62 -13 62 1 0 5 6 4 13 -1 16 -14 66 -22 72 -13 8 13
45 -1 45 -16 0 -25 1 -29 16 -46 10 -10 12 -18 5 -22 -6 -4 -8 -13 -4 -21 3
-10 1 -13 -9 -10 -18 7 -44 -20 -28 -30 6 -3 8 -11 5 -16 -4 -5 -1 -9 4 -9 6
0 11 -5 11 -11 0 -5 -4 -7 -10 -4 -5 3 -10 1 -10 -5 0 -6 -4 -8 -10 -5 -6 3
-7 -1 -3 -10 5 -13 7 -14 14 -3 9 13 14 -23 10 -64 -2 -11 5 -18 14 -18 11 0
15 -5 11 -15 -3 -9 1 -18 9 -21 19 -8 19 -21 0 -40 -21 -22 -19 -44 5 -44 19
0 20 7 20 230 l0 230 -815 0 -815 0 0 -279z m348 187 c3 -40 0 -48 -15 -49
-53 -4 -280 -5 -290 -1 -14 4 -18 83 -6 96 4 3 75 5 157 4 l151 -3 3 -47z
m-260 -116 c2 -12 -1 -22 -7 -22 -6 0 -11 6 -11 13 0 9 -3 8 -9 -2 -11 -17
-23 2 -15 24 9 23 38 14 42 -13z m85 7 c4 -15 2 -19 -9 -15 -8 3 -14 1 -14 -5
0 -6 -4 -8 -9 -5 -13 8 -1 46 14 46 7 0 15 -9 18 -21z m61 6 c-4 -8 -1 -15 5
-15 6 0 8 -6 5 -14 -3 -8 -13 -12 -25 -9 -20 6 -27 23 -8 23 6 0 9 7 5 15 -3
9 0 15 9 15 9 0 12 -6 9 -15z m57 -26 l-10 -24 0 26 c-1 14 2 29 6 33 12 12
14 -9 4 -35z"/>
<path d="M83 1595 c-9 -25 2 -38 35 -39 22 -1 32 4 36 17 6 24 26 22 26 -3 0
-11 5 -20 10 -20 6 0 10 9 10 20 0 11 5 20 10 20 6 0 10 -9 10 -20 0 -11 5
-20 10 -20 6 0 10 5 10 10 0 6 9 10 20 10 11 0 20 -5 20 -10 0 -13 32 -9 42 5
5 6 12 5 20 -3 6 -6 17 -12 22 -12 6 0 5 5 -2 12 -8 8 -9 15 0 25 15 19 2 29
-18 13 -9 -8 -18 -10 -22 -4 -9 12 -42 14 -42 3 0 -5 -9 -9 -20 -9 -11 0 -20
4 -20 10 0 16 -150 11 -157 -5z"/>
<path d="M726 1612 c-4 -4 -12 -7 -18 -7 -15 0 -19 -34 -7 -56 11 -22 -10 -31
-29 -12 -22 22 -29 15 -29 -26 0 -33 3 -39 19 -38 10 1 17 6 14 12 -14 33 -17
49 -8 36 5 -7 15 -10 21 -7 6 4 11 2 11 -4 0 -6 4 -9 9 -5 6 3 8 -13 6 -39 -4
-37 -2 -44 12 -42 9 2 19 9 21 16 3 7 0 10 -7 6 -6 -4 -11 -3 -11 3 0 5 -3 18
-7 28 -6 16 -5 16 10 4 16 -13 17 -12 8 13 -6 14 -7 26 -2 26 5 0 11 -5 13
-12 2 -6 10 -8 16 -4 13 8 16 27 5 25 -25 -4 -35 2 -24 14 8 10 7 17 -2 27 -6
7 2 4 18 -6 27 -17 28 -17 16 -1 -11 14 -11 20 -1 32 8 9 9 15 2 15 -6 0 -14
-5 -18 -12 -5 -8 -11 -6 -19 5 -7 9 -15 13 -19 9z"/>
<path d="M590 1604 c0 -11 29 -34 34 -26 2 4 -4 13 -15 20 -10 7 -19 10 -19 6z"/>
<path d="M640 1600 c0 -5 5 -10 10 -10 6 0 10 5 10 10 0 6 -4 10 -10 10 -5 0
-10 -4 -10 -10z"/>
<path d="M970 1596 c0 -2 7 -7 16 -10 8 -3 12 -2 9 4 -6 10 -25 14 -25 6z"/>
<path d="M0 1554 c0 -8 5 -12 10 -9 6 4 8 11 5 16 -9 14 -15 11 -15 -7z"/>
<path d="M565 1540 c-3 -5 -1 -10 4 -10 6 0 11 5 11 10 0 6 -2 10 -4 10 -3 0
-8 -4 -11 -10z"/>
<path d="M440 1520 c0 -5 4 -10 9 -10 6 0 13 5 16 10 3 6 -1 10 -9 10 -9 0
-16 -4 -16 -10z"/>
<path d="M21 1504 c0 -11 3 -14 6 -6 3 7 2 16 -1 19 -3 4 -6 -2 -5 -13z"/>
<path d="M1410 1500 c0 -6 7 -10 15 -10 8 0 15 2 15 4 0 2 -7 6 -15 10 -8 3
-15 1 -15 -4z"/>
<path d="M570 1485 c-8 -9 -8 -15 -2 -15 12 0 26 19 19 26 -2 2 -10 -2 -17
-11z"/>
<path d="M1490 1490 c0 -5 7 -10 16 -10 8 0 12 5 9 10 -3 6 -10 10 -16 10 -5
0 -9 -4 -9 -10z"/>
<path d="M1571 1484 c0 -11 3 -14 6 -6 3 7 2 16 -1 19 -3 4 -6 -2 -5 -13z"/>
<path d="M681 1464 c-10 -23 -9 -30 10 -50 14 -15 17 -24 10 -24 -7 0 -11 -6
-8 -14 4 -11 1 -13 -11 -10 -12 4 -11 0 6 -14 12 -11 22 -25 22 -31 0 -6 5
-11 11 -11 5 0 8 4 5 8 -2 4 0 14 6 22 8 13 9 12 5 -1 -3 -9 0 -22 6 -28 9 -9
9 -14 0 -19 -14 -9 -5 -26 20 -35 11 -4 15 -12 11 -19 -6 -10 -5 -11 8 -1 8 7
17 10 20 7 3 -2 8 2 11 10 4 11 0 13 -19 10 -23 -4 -25 -2 -18 18 6 21 6 22
-11 8 -11 -8 -16 -10 -12 -4 3 6 2 26 -3 44 -7 24 -5 38 7 56 9 14 13 27 10
31 -4 3 -9 -2 -13 -11 -5 -13 -9 -14 -20 -5 -8 6 -14 8 -14 3 -1 -5 -7 2 -15
16 -8 14 -10 29 -5 35 5 6 5 16 1 23 -5 9 -11 4 -20 -14z m59 -85 c0 -5 -7 -9
-15 -9 -15 0 -20 12 -9 23 8 8 24 -1 24 -14z"/>
<path d="M460 1466 c0 -9 5 -16 10 -16 6 0 10 -7 10 -15 0 -8 4 -15 9 -15 17
0 5 55 -13 58 -9 2 -16 -3 -16 -12z"/>
<path d="M595 1460 c-3 -5 1 -10 10 -10 9 0 13 5 10 10 -3 6 -8 10 -10 10 -2
0 -7 -4 -10 -10z"/>
<path d="M1532 1450 c0 -14 2 -19 5 -12 2 6 2 18 0 25 -3 6 -5 1 -5 -13z"/>
<path d="M17 1453 c-2 -5 -1 -19 4 -33 7 -23 7 -23 8 8 1 31 -3 40 -12 25z"/>
<path d="M1454 1452 c-6 -4 -7 -18 -4 -32 l7 -25 8 28 c8 31 5 40 -11 29z"/>
<path d="M1486 1430 c8 -43 14 -51 14 -19 0 13 -5 31 -10 39 -7 11 -8 5 -4
-20z"/>
<path d="M811 1436 c-1 -12 -6 -16 -15 -13 -10 4 -13 1 -10 -7 3 -8 1 -17 -5
-21 -14 -8 -14 -52 -1 -60 6 -4 8 -10 5 -15 -3 -4 2 -13 10 -20 10 -9 15 -9
15 -1 0 6 -5 11 -11 11 -6 0 0 13 13 29 25 31 39 34 50 11 5 -11 7 -9 7 6 1
12 -6 25 -15 28 -8 3 -13 10 -9 15 3 5 1 12 -4 15 -5 3 -11 -1 -15 -9 -3 -8 0
-15 6 -15 9 0 9 -3 0 -12 -20 -20 -37 5 -22 31 6 12 9 27 6 34 -2 7 -5 4 -5
-7z m-18 -66 c3 -11 1 -23 -4 -26 -5 -3 -9 6 -9 20 0 31 6 34 13 6z"/>
<path d="M1285 1440 c-8 -13 -1 -24 14 -19 6 3 7 10 2 18 -6 10 -10 10 -16 1z"/>
<path d="M1031 1424 c0 -11 3 -14 6 -6 3 7 2 16 -1 19 -3 4 -6 -2 -5 -13z"/>
<path d="M1423 1405 c0 -14 3 -25 8 -25 5 0 9 9 9 19 0 11 -4 22 -9 25 -5 3
-8 -6 -8 -19z"/>
<path d="M546 1412 c-3 -5 1 -9 9 -9 8 0 12 4 9 9 -3 4 -7 8 -9 8 -2 0 -6 -4
-9 -8z"/>
<path d="M1681 1384 c0 -11 3 -14 6 -6 3 7 2 16 -1 19 -3 4 -6 -2 -5 -13z"/>
<path d="M6 1382 c-3 -5 1 -9 9 -9 8 0 15 4 15 9 0 4 -4 8 -9 8 -6 0 -12 -4
-15 -8z"/>
<path d="M955 1379 c-11 -16 -1 -19 13 -3 7 8 8 14 3 14 -5 0 -13 -5 -16 -11z"/>
<path d="M998 1369 c-10 -10 -14 -19 -10 -19 5 0 17 9 27 20 10 11 14 20 9 19
-5 0 -17 -9 -26 -20z"/>
<path d="M19 1333 c-1 -5 -1 -11 0 -15 0 -5 -3 -8 -9 -8 -5 0 -10 -7 -10 -15
0 -8 4 -15 9 -15 5 0 11 -8 14 -17 2 -10 4 3 5 30 0 26 -2 47 -4 47 -2 0 -5
-3 -5 -7z"/>
<path d="M1528 1333 c7 -3 16 -2 19 1 4 3 -2 6 -13 5 -11 0 -14 -3 -6 -6z"/>
<path d="M406 1253 c-8 -69 -13 -78 -48 -86 -24 -7 -27 -5 -26 22 1 41 -20 88
-43 94 -23 6 -65 -25 -55 -41 4 -7 14 -12 22 -12 10 0 14 -12 14 -40 0 -35 -3
-40 -23 -40 -16 0 -28 9 -35 25 -8 17 -20 25 -38 25 -24 0 -26 -2 -20 -34 8
-41 1 -46 -74 -61 -45 -9 -56 -16 -58 -33 -4 -29 13 -35 81 -24 l57 9 -6 -77
c-6 -70 -5 -79 15 -99 11 -11 31 -21 44 -21 35 1 129 26 162 44 28 15 31 15
43 -1 6 -9 12 -25 12 -36 0 -10 4 -16 9 -12 5 3 12 1 15 -4 3 -5 -23 -38 -59
-74 -36 -36 -65 -69 -65 -74 0 -4 5 -1 10 7 5 8 10 10 10 3 0 -7 15 -4 41 9
22 10 43 17 46 15 6 -6 -33 -84 -47 -92 -17 -11 -31 -43 -17 -41 50 9 107 62
133 126 13 30 13 36 0 46 -13 9 -9 16 22 43 36 30 37 31 46 11 6 -14 5 -29 -5
-47 -21 -39 -17 -338 5 -360 7 -7 26 6 26 18 0 6 -5 7 -12 3 -7 -4 -8 -3 -4 4
4 6 11 62 16 124 5 62 12 128 15 147 l6 33 27 -25 c35 -32 108 -77 126 -77 7
0 19 -6 25 -14 17 -20 49 -26 55 -10 3 9 -6 19 -27 28 -18 7 -65 45 -104 84
-79 77 -81 85 -47 170 12 29 17 32 51 31 62 -4 71 -12 75 -73 2 -31 -1 -52 -6
-48 -5 3 -7 -2 -3 -11 4 -11 1 -17 -8 -17 -23 0 -18 -13 16 -43 36 -31 39 -32
39 -13 0 8 8 17 18 20 27 9 74 54 68 65 -4 6 -18 6 -39 0 -17 -5 -33 -9 -35
-9 -2 0 -2 18 0 40 3 38 23 58 23 23 0 -9 7 -19 15 -21 8 -3 27 -15 42 -28 15
-12 44 -28 65 -34 21 -7 43 -16 48 -20 6 -5 24 -10 40 -12 l30 -3 -34 -22
c-18 -12 -40 -19 -48 -16 -13 5 -13 2 -4 -15 7 -14 8 -23 1 -27 -15 -9 -12
-41 6 -56 13 -10 17 -10 24 0 5 9 10 10 14 2 28 -44 130 75 118 137 -2 6 2 12
8 12 5 0 10 9 10 21 0 11 -4 18 -9 14 -5 -3 -12 -1 -15 4 -3 5 1 12 10 15 9 4
15 9 12 11 -9 10 -38 -7 -38 -21 0 -8 -16 -22 -36 -31 -31 -15 -36 -15 -44 -3
-9 13 -10 13 -10 0 -1 -12 -2 -12 -10 2 -6 9 -33 33 -60 53 -49 36 -62 55 -37
55 7 0 23 7 35 16 22 15 22 17 7 34 -15 17 -14 18 22 24 21 4 59 7 85 8 26 1
45 5 42 10 -3 5 -12 7 -20 4 -8 -3 -14 -1 -14 4 0 6 -5 10 -11 10 -5 0 -7 -4
-4 -10 3 -5 1 -10 -4 -10 -6 0 -11 5 -11 10 0 6 -33 10 -80 10 l-80 0 16 25
c16 24 16 25 -7 26 -22 0 -21 2 9 16 30 16 36 23 30 40 -2 3 -31 5 -64 4 -47
-2 -63 1 -67 13 -5 12 0 14 23 9 33 -6 125 20 147 43 13 12 5 14 -59 15 -137
3 -160 1 -169 -12 -9 -15 -3 -94 11 -148 5 -19 8 -36 6 -38 -2 -2 -26 -1 -54
3 -41 5 -51 11 -56 29 -7 26 -66 55 -116 57 -65 2 -138 -13 -159 -33 -24 -22
-26 -30 -11 -45 8 -8 6 -15 -5 -24 -8 -7 -15 -18 -15 -25 0 -17 -68 -35 -135
-35 l-58 0 7 53 c3 28 6 61 6 72 0 27 11 41 35 49 17 5 21 1 23 -22 3 -37 21
-69 43 -75 22 -6 59 19 59 39 0 8 12 32 26 53 26 40 52 51 123 51 43 0 70 13
51 25 -7 4 -16 2 -20 -5 -5 -9 -9 -9 -14 -1 -4 6 -27 11 -51 11 -44 0 -44 1
-35 26 22 58 7 114 -31 114 -13 0 -18 -13 -23 -57z m-50 -191 c-14 -15 -18
-15 -31 -1 -20 20 -10 47 18 51 28 4 35 -28 13 -50z m518 -47 c3 -9 0 -15 -9
-15 -8 0 -15 7 -15 15 0 8 4 15 9 15 5 0 11 -7 15 -15z m-357 -1 c33 -9 17
-34 -23 -34 -36 0 -42 8 -22 28 14 14 15 14 45 6z m127 0 c9 -3 16 -15 16 -26
0 -16 -5 -19 -22 -14 -13 3 -28 6 -35 6 -6 0 -9 9 -6 20 5 21 19 25 47 14z m6
-90 c0 -19 -30 -71 -31 -54 -1 8 -1 18 0 23 0 4 -10 7 -24 7 -32 0 -34 27 -2
33 38 6 57 3 57 -9z m224 1 c-4 -8 -8 -15 -10 -15 -2 0 -4 7 -4 15 0 8 4 15
10 15 5 0 7 -7 4 -15z m-340 -20 c4 -11 -2 -15 -24 -15 -29 0 -45 12 -33 24
12 12 51 6 57 -9z"/>
<path d="M337 1093 c-4 -3 -7 -11 -7 -17 0 -6 5 -5 12 2 6 6 9 14 7 17 -3 3
-9 2 -12 -2z"/>
<path d="M608 913 c7 -3 16 -2 19 1 4 3 -2 6 -13 5 -11 0 -14 -3 -6 -6z"/>
<path d="M830 1263 c0 -8 4 -12 9 -9 5 4 12 0 14 -6 3 -7 6 -4 6 8 1 12 -5 21
-14 21 -8 0 -15 -7 -15 -14z"/>
<path d="M0 1215 c0 -8 7 -15 15 -15 8 0 15 7 15 15 0 8 -7 15 -15 15 -8 0
-15 -7 -15 -15z"/>
<path d="M360 1205 c-7 -9 -11 -18 -8 -20 3 -3 11 1 18 10 7 9 11 18 8 20 -3
3 -11 -1 -18 -10z"/>
<path d="M781 1211 c-7 -5 -11 -15 -9 -22 3 -10 8 -7 17 9 13 24 12 26 -8 13z"/>
<path d="M485 1201 c-2 -5 7 -8 20 -8 14 0 25 2 25 6 0 10 -39 11 -45 2z"/>
<path d="M1660 1189 c0 -5 5 -7 10 -4 6 3 10 8 10 11 0 2 -4 4 -10 4 -5 0 -10
-5 -10 -11z"/>
<path d="M7 1183 c-4 -3 -7 -26 -7 -50 0 -40 2 -43 15 -29 8 8 15 31 15 50 0
34 -8 44 -23 29z"/>
<path d="M1220 1165 c-5 -14 -10 -35 -10 -45 0 -22 44 -55 60 -45 5 3 19 0 31
-9 15 -10 29 -12 47 -6 15 5 48 11 73 14 45 5 46 5 44 -22 -2 -15 -10 -41 -18
-57 -14 -26 -15 -49 -6 -165 5 -74 12 -151 15 -171 6 -36 5 -37 -33 -41 -21
-3 -58 1 -82 9 -52 15 -85 17 -76 3 3 -5 17 -10 31 -10 13 0 23 -5 22 -12 -4
-15 66 -36 124 -37 39 -1 50 3 67 25 20 25 21 35 15 163 -4 94 -2 154 6 196 7
33 15 84 17 113 4 40 9 52 21 52 10 0 25 7 35 14 10 8 26 12 35 9 9 -2 26 3
37 12 20 16 20 16 -1 10 -14 -4 -24 0 -27 10 -5 13 -28 14 -164 8 -178 -7
-187 -7 -225 2 -24 6 -29 3 -38 -20z"/>
<path d="M610 1160 c0 -6 7 -10 15 -10 8 0 15 2 15 4 0 2 -7 6 -15 10 -8 3
-15 1 -15 -4z"/>
<path d="M1077 1149 c-8 -11 -13 -29 -10 -39 12 -46 121 -106 146 -81 9 9 7
13 -8 17 -11 3 -40 32 -64 65 -24 32 -45 59 -47 59 -1 0 -9 -9 -17 -21z"/>
<path d="M1015 1141 c-24 -5 -26 -8 -12 -13 22 -9 22 -26 0 -50 -9 -10 -18
-28 -20 -38 -3 -18 3 -20 70 -20 l72 0 -25 20 c-26 21 -45 26 -36 11 4 -5 -2
-8 -11 -7 -11 2 -19 13 -21 30 -2 16 0 26 5 23 5 -3 9 8 8 24 0 16 0 28 0 28
0 -1 -13 -4 -30 -8z"/>
<path d="M1174 1115 c-4 -9 3 -24 16 -35 29 -25 33 -25 18 0 -7 11 -17 20 -21
20 -5 0 -7 7 -3 15 3 8 3 15 0 15 -2 0 -7 -7 -10 -15z"/>
<path d="M1645 1123 c-56 -12 -75 -26 -75 -53 0 -15 -7 -49 -15 -76 -11 -35
-15 -97 -15 -220 0 -170 0 -171 -26 -195 -20 -19 -35 -24 -74 -23 -27 1 -66 8
-86 14 -34 12 -47 14 -91 19 -7 0 -13 10 -13 21 0 11 -7 20 -15 20 -21 0 -30
27 -15 45 18 21 40 18 40 -5 0 -17 7 -20 43 -20 23 0 50 -7 61 -15 12 -9 25
-11 41 -5 13 5 26 6 30 2 4 -4 4 18 0 48 -4 30 -10 97 -14 148 l-6 93 -34 -66
c-23 -44 -40 -65 -53 -65 -11 0 -18 7 -18 20 0 12 -7 20 -16 20 -9 0 -31 15
-50 34 -24 24 -34 29 -38 19 -3 -8 -10 -11 -16 -8 -5 3 -10 1 -10 -5 0 -6 -4
-9 -9 -5 -5 3 -12 1 -16 -4 -3 -6 -26 -13 -51 -17 -40 -6 -48 -4 -74 21 -16
15 -30 22 -34 17 -6 -10 49 -58 92 -81 26 -14 62 0 62 25 0 24 46 40 67 23 11
-9 14 -10 9 -1 -4 6 -2 12 3 12 15 0 14 -27 -1 -33 -10 -3 -10 -7 1 -21 12
-14 11 -19 -3 -34 -9 -10 -16 -27 -16 -38 -1 -23 -15 -48 -55 -97 -27 -33 -35
-37 -77 -37 -55 0 -83 26 -68 65 5 13 6 32 3 44 -4 16 -1 21 15 21 43 0 30 18
-28 39 l-60 22 -33 -25 c-19 -15 -39 -26 -45 -26 -7 0 -12 -6 -12 -14 0 -26
-24 -23 -56 8 -18 17 -32 35 -32 39 0 5 -9 16 -19 24 -17 14 -17 14 1 8 25 -8
36 10 36 61 0 44 -10 54 -56 54 -18 0 -27 -9 -39 -36 -19 -47 -20 -78 -1 -71
10 4 13 1 10 -8 -9 -22 152 -165 185 -165 6 0 11 -10 11 -21 0 -19 -4 -21 -38
-16 -47 8 -148 56 -189 91 l-30 26 -7 -43 c-3 -23 -9 -97 -12 -165 -7 -128
-16 -146 -45 -95 -45 78 -48 357 -5 385 6 4 7 10 3 14 -12 13 -45 -26 -40 -47
12 -44 -56 -139 -121 -168 -70 -33 -80 1 -19 65 28 28 30 49 6 39 -10 -5 -33
-10 -50 -13 -44 -6 -44 16 2 59 18 18 31 37 28 43 -3 6 -2 8 2 3 5 -4 18 2 31
14 20 19 21 22 7 50 -17 34 -14 33 -47 16 -14 -8 -22 -18 -18 -22 4 -5 3 -6
-3 -3 -5 4 -49 3 -97 -1 -47 -3 -84 -3 -82 1 3 5 -6 12 -20 18 -14 5 -26 12
-26 15 0 4 5 3 12 -1 8 -5 9 -2 5 10 -4 10 -7 27 -7 38 0 12 -5 18 -13 15 -7
-3 -13 3 -13 13 0 10 6 16 13 13 7 -3 13 -1 13 3 0 5 3 19 6 31 6 21 3 22 -45
20 l-51 -2 0 -497 0 -498 815 0 815 0 0 550 c0 303 -1 549 -2 549 -2 -1 -12
-3 -23 -6z m-14 -142 c6 10 8 8 7 -7 -3 -29 -38 -20 -38 10 1 20 1 20 11 2 9
-15 13 -16 20 -5z m-1464 -169 c0 -10 -7 -19 -14 -19 -16 0 -17 9 -1 25 16 16
17 15 15 -6z m203 8 c0 -5 -2 -10 -4 -10 -3 0 -8 5 -11 10 -3 6 -1 10 4 10 6
0 11 -4 11 -10z m-240 -15 c0 -8 -2 -15 -4 -15 -2 0 -6 7 -10 15 -3 8 -1 15 4
15 6 0 10 -7 10 -15z m165 5 c-3 -5 -2 -10 4 -10 5 0 13 5 16 10 7 12 25 4 25
-11 0 -5 -16 -9 -35 -9 -24 0 -35 5 -35 15 0 8 7 15 16 15 8 0 12 -4 9 -10z
m994 -9 c9 -6 5 -8 -13 -8 -14 0 -26 3 -26 8 0 11 21 11 39 0z m-1046 -8 c-7
-2 -19 -2 -25 0 -7 3 -2 5 12 5 14 0 19 -2 13 -5z m1118 -91 c-37 -4 -52 5
-32 18 8 5 25 3 40 -3 l26 -12 -34 -3z"/>
<path d="M1680 1119 c0 -5 5 -7 10 -4 6 3 10 8 10 11 0 2 -4 4 -10 4 -5 0 -10
-5 -10 -11z"/>
<path d="M463 1113 c-12 -2 -29 -15 -38 -29 l-16 -25 24 16 c13 8 54 18 91 22
36 3 66 9 66 13 0 8 -91 10 -127 3z"/>
<path d="M250 1080 c-1 -3 -8 -38 -14 -77 -8 -51 -9 -73 -2 -73 6 0 38 4 71
10 64 10 96 35 94 74 l0 21 -11 -21 c-15 -33 -50 -45 -81 -29 -14 7 -29 10
-33 7 -4 -4 -4 -1 0 6 4 7 3 18 -2 25 -6 7 -12 23 -15 37 -2 14 -5 23 -7 20z"/>
<path d="M1237 1043 c4 -10 -1 -21 -13 -30 -18 -13 -18 -13 1 -10 11 2 30 8
42 15 12 7 32 12 45 13 23 0 23 0 -2 11 -14 6 -37 12 -52 14 -22 3 -26 0 -21
-13z"/>
<path d="M1375 1049 c-26 -6 -27 -7 -6 -8 14 0 33 -9 43 -18 17 -15 20 -15 28
-3 20 32 -5 42 -65 29z"/>
<path d="M7 1039 c7 -8 11 -25 8 -37 -2 -12 0 -22 6 -22 16 0 10 47 -8 61 -16
12 -17 12 -6 -2z"/>
<path d="M1320 1015 c-34 -8 -46 -16 -48 -32 -2 -12 -10 -27 -18 -33 -8 -7
-14 -21 -14 -32 0 -27 31 -70 46 -64 7 3 18 -2 24 -9 7 -8 16 -12 21 -9 13 8
11 -10 -3 -24 -8 -8 -8 -12 -1 -12 6 0 16 14 22 30 5 17 19 43 29 58 29 41 43
91 32 112 -13 24 -37 28 -90 15z m31 -82 c-10 -38 -58 -46 -57 -11 1 23 17 36
48 37 13 1 15 -4 9 -26z"/>
<path d="M1315 931 c-3 -5 -1 -12 5 -16 5 -3 10 1 10 9 0 18 -6 21 -15 7z"/>
<path d="M1231 974 c0 -11 3 -14 6 -6 3 7 2 16 -1 19 -3 4 -6 -2 -5 -13z"/>
<path d="M1187 974 c-4 -4 -4 -10 -1 -15 6 -10 34 0 34 12 0 10 -24 12 -33 3z"/>
<path d="M1070 948 c0 -4 16 -8 35 -8 19 0 35 2 35 4 0 2 -16 6 -35 8 -19 2
-35 0 -35 -4z"/>
<path d="M1038 915 c-15 -33 4 -55 46 -55 36 0 126 52 126 72 0 9 -3 8 -10 -2
-5 -8 -10 -10 -10 -4 0 7 -15 8 -51 0 -37 -8 -55 -7 -70 2 -17 11 -21 9 -31
-13z"/>
<path d="M10 920 c0 -5 5 -10 11 -10 5 0 7 5 4 10 -3 6 -8 10 -11 10 -2 0 -4
-4 -4 -10z"/>
<path d="M9 878 c0 -7 -3 -26 -5 -42 -3 -18 0 -32 8 -37 10 -7 10 -9 1 -9 -10
0 -13 -86 -13 -395 l0 -395 850 0 850 0 0 394 c0 253 -4 397 -10 401 -7 4 -10
-127 -10 -384 l0 -391 -825 0 -825 0 -1 428 c-1 235 -1 430 0 435 0 4 -3 7 -9
7 -5 0 -10 -6 -11 -12z"/>
<path d="M1680 880 c0 -5 5 -10 11 -10 5 0 7 5 4 10 -3 6 -8 10 -11 10 -2 0
-4 -4 -4 -10z"/>
<path d="M1680 850 c0 -5 5 -10 10 -10 6 0 10 5 10 10 0 6 -4 10 -10 10 -5 0
-10 -4 -10 -10z"/>
<path d="M1231 666 c-7 -8 -8 -17 -3 -20 6 -3 13 1 16 10 9 23 2 28 -13 10z"/>
<path d="M865 620 c3 -5 8 -10 11 -10 2 0 4 5 4 10 0 6 -5 10 -11 10 -5 0 -7
-4 -4 -10z"/>
<path d="M1260 610 c0 -7 24 -20 36 -20 13 0 1 19 -16 23 -11 3 -20 2 -20 -3z"/>
</g>
</svg>
