<?xml version="1.0" standalone="no"?>
<!DOCTYPE svg PUBLIC "-//W3C//DTD SVG 20010904//EN"
 "http://www.w3.org/TR/2001/REC-SVG-20010904/DTD/svg10.dtd">
<svg version="1.0" xmlns="http://www.w3.org/2000/svg"
 width="170.000000pt" height="170.000000pt" viewBox="0 0 170.000000 170.000000"
 preserveAspectRatio="xMidYMid meet">
<metadata>
Created by potrace 1.11, written by Peter Selinger 2001-2013
</metadata>
<g transform="translate(0.000000,170.000000) scale(0.100000,-0.100000)"
fill="#000000" stroke="none">
<path d="M0 850 l0 -850 850 0 850 0 0 850 0 850 -850 0 -850 0 0 -850z m358
708 l3 -38 -130 0 -131 0 0 24 c0 56 3 57 134 54 l121 -3 3 -37z m-208 -96 c0
-15 -2 -15 -10 -2 -8 12 -10 12 -10 1 0 -8 -3 -12 -6 -8 -4 3 -4 13 0 22 7 20
26 10 26 -13z m60 -2 c-18 -11 -24 -6 -16 16 5 14 9 15 19 5 9 -9 9 -14 -3
-21z m513 13 c3 -5 -27 -7 -66 -5 -122 4 -136 9 -35 10 53 1 99 -1 101 -5z
m-453 -13 c0 -5 -2 -10 -4 -10 -3 0 -8 5 -11 10 -3 6 -1 10 4 10 6 0 11 -4 11
-10z m610 -127 c0 -9 -40 21 -87 66 -78 72 -64 72 17 0 39 -35 70 -65 70 -66z
m-190 102 c7 -8 9 -19 5 -25 -9 -14 -142 -11 -245 6 -75 12 -78 13 -23 9 45
-3 66 -1 75 9 18 19 172 20 188 1z m-409 -87 c24 -24 42 -46 41 -50 -1 -5 1
-7 5 -6 5 1 20 -4 36 -10 52 -22 30 -32 -70 -32 -74 0 -94 3 -85 12 10 10 21
13 65 17 5 1 0 16 -11 34 -20 33 -37 77 -29 77 3 0 24 -19 48 -42z m196 9 c7
0 13 -3 13 -6 0 -3 11 -7 25 -7 48 -3 157 -38 162 -51 13 -33 -15 -34 -144 -2
-124 30 -130 33 -125 55 4 20 8 23 30 17 15 -3 32 -6 39 -6z m-420 -54 c-3
-10 -5 -2 -5 17 0 19 2 27 5 18 2 -10 2 -26 0 -35z m731 -29 c17 -5 15 -24 -3
-24 -8 0 -15 5 -15 10 0 6 -15 10 -32 9 -31 -1 -32 -1 -8 -9 l25 -8 -27 -1
c-33 -1 -68 -33 -68 -60 0 -30 -11 -51 -26 -51 -20 0 -17 -24 4 -42 17 -15 61
-28 167 -49 33 -7 64 -16 69 -21 6 -4 19 -8 30 -8 10 0 17 -3 14 -6 -4 -3 -50
4 -104 15 -107 23 -133 25 -94 9 l25 -10 -35 -12 c-80 -29 -87 -28 -92 4 -4
27 -2 29 31 33 l36 3 -32 8 c-31 8 -43 27 -43 74 0 15 6 22 20 22 15 0 20 7
20 29 0 16 -6 31 -12 34 -12 4 -2 10 40 23 8 2 16 13 19 23 4 16 11 19 41 14
21 -2 43 -6 50 -9z m-718 -41 c0 -44 -5 -41 -14 10 -5 27 -4 37 3 32 6 -3 11
-22 11 -42z m1594 15 c-9 -14 -23 2 -17 18 4 12 8 13 14 3 4 -7 5 -17 3 -21z
m-817 16 c-3 -3 -12 -4 -19 -1 -8 3 -5 6 6 6 11 1 17 -2 13 -5z m-437 -58 c0
-23 -4 -24 -67 -28 -58 -3 -71 0 -91 19 l-23 22 33 3 c18 2 59 4 91 6 54 2 57
1 57 -22z m-326 -82 c10 -80 8 -104 -10 -97 -9 3 -11 9 -6 12 9 6 9 36 -3 99
-3 17 -2 32 3 32 5 0 12 -21 16 -46z m344 -6 c3 -27 2 -28 -50 -28 -29 0 -60
5 -68 10 -12 8 -11 10 7 10 29 0 38 16 16 29 -14 9 -6 11 37 9 52 -3 55 -5 58
-30z m88 -40 c-105 -24 -120 -18 -20 8 44 11 83 18 89 15 5 -3 -26 -13 -69
-23z m831 -4 c-3 -3 -12 -4 -19 -1 -8 3 -5 6 6 6 11 1 17 -2 13 -5z m-942 -13
c-14 -13 -113 -25 -100 -12 6 5 30 11 55 14 25 2 47 4 50 5 2 1 0 -2 -5 -7z
m-305 -66 c0 -8 -4 -15 -10 -15 -5 0 -10 7 -10 15 0 8 5 15 10 15 6 0 10 -7
10 -15z m839 -47 c-6 -12 -17 -26 -23 -30 -6 -4 21 -8 60 -8 l72 0 7 -72 c4
-40 13 -91 20 -113 15 -45 23 -109 14 -104 -4 2 -15 -3 -25 -13 -11 -9 -37
-24 -59 -34 l-40 -19 71 -3 72 -3 4 -34 4 -35 -93 0 -93 0 0 -38 c0 -54 -13
-62 -97 -62 l-73 0 0 35 c0 32 2 35 30 35 20 0 30 5 30 15 0 12 -20 15 -116
15 -102 0 -115 2 -110 16 3 9 6 24 6 35 0 18 8 19 114 19 89 0 116 3 126 15
11 13 -2 15 -105 15 -100 0 -116 2 -111 15 3 8 0 15 -6 15 -12 0 -4 86 11 104
4 6 12 40 15 76 4 36 9 74 12 85 6 26 72 47 122 39 30 -5 49 1 102 28 36 19
66 34 68 32 2 -1 -2 -13 -9 -26z m-809 -2 c0 -6 17 -22 38 -36 58 -39 151
-110 157 -121 4 -5 24 -9 47 -9 31 0 41 4 45 20 8 29 63 28 63 -1 0 -20 4 -21
53 -17 28 3 59 8 68 12 19 8 20 -18 3 -48 -9 -15 -23 -18 -83 -18 -60 1 -72
-2 -81 -18 -9 -16 -6 -19 17 -22 26 -3 29 -8 48 -91 13 -57 27 -93 38 -102 15
-10 17 -21 12 -44 -6 -27 -11 -31 -41 -31 -45 0 -59 23 -80 138 -9 50 -19 92
-23 92 -3 0 -39 -50 -80 -110 -74 -109 -99 -130 -154 -130 -15 0 -18 5 -13 23
3 12 6 28 6 35 0 7 10 16 23 21 13 5 39 30 58 56 19 25 55 74 81 107 27 34 48
65 48 70 0 5 -26 8 -57 7 -50 -2 -58 0 -55 14 2 10 -4 18 -13 18 -8 1 -19 3
-25 4 -5 1 -16 3 -22 4 -7 2 -4 6 7 10 17 7 15 9 -15 19 -19 7 -47 13 -62 14
-29 2 -38 22 -15 31 9 4 9 8 -2 15 -8 6 -12 19 -8 31 3 12 1 24 -4 27 -5 3 -9
16 -9 29 0 18 4 23 15 19 8 -4 15 -11 15 -18z m527 -11 c0 -8 -4 -15 -9 -15
-4 0 -8 7 -8 15 0 8 4 15 8 15 5 0 9 -7 9 -15z m629 -132 c7 -26 44 -32 44 -8
0 10 11 15 35 15 24 0 35 -5 35 -15 0 -8 4 -15 8 -15 11 0 33 -46 26 -53 -3
-2 -24 0 -47 5 -23 6 -94 8 -159 5 l-116 -5 -5 24 c-2 13 0 24 4 24 5 0 6 7 3
15 -5 11 1 15 24 15 17 0 37 -7 46 -15 16 -17 51 -21 41 -5 -12 20 4 40 30 38
17 -2 28 -10 31 -25z m155 -120 c6 -16 13 -40 16 -55 5 -27 4 -27 -53 -30 -78
-4 -68 -23 13 -23 67 0 67 0 77 -32 7 -22 5 -23 -58 -23 -59 0 -66 -2 -66 -20
0 -17 8 -19 82 -22 l82 -3 13 -32 13 -33 -199 0 c-198 0 -199 0 -205 23 -12
45 -9 47 62 47 73 0 84 4 75 26 -4 10 -24 14 -75 14 -69 0 -69 0 -66 27 3 25
6 26 57 27 34 1 56 6 58 14 4 9 -12 12 -56 12 -33 0 -62 3 -64 8 -3 4 -8 28
-11 55 l-7 47 151 0 150 0 11 -27z"/>
<path d="M120 1562 c0 -14 8 -19 30 -20 17 0 28 3 25 8 -3 5 -1 11 5 15 5 3
10 -1 10 -9 0 -9 5 -16 10 -16 6 0 10 7 10 15 0 8 5 15 10 15 6 0 10 -6 10
-13 0 -10 13 -13 43 -13 23 1 50 -2 60 -7 10 -5 17 -4 17 3 0 5 -5 10 -11 10
-8 0 -8 4 0 13 9 11 -10 14 -104 15 -106 2 -115 1 -115 -16z"/>
<path d="M911 886 c-9 -10 -8 -15 4 -20 8 -3 15 -13 15 -21 0 -13 -9 -16 -37
-15 -74 4 -104 0 -98 -11 4 -6 30 -9 66 -6 55 4 73 -3 49 -18 -15 -9 -12 -25
4 -25 15 0 29 -27 21 -40 -2 -4 -41 -7 -85 -7 -77 1 -80 2 -80 24 0 14 6 23
15 23 18 0 18 8 0 40 -18 32 -18 35 1 54 14 15 14 16 0 16 -9 0 -16 -4 -16 -9
0 -5 -10 -12 -22 -16 -20 -6 -20 -8 -5 -12 24 -6 22 -43 -3 -43 -11 0 -20 -4
-20 -10 0 -5 7 -10 15 -10 9 0 15 -9 15 -25 0 -16 -6 -25 -15 -25 -8 0 -15 -4
-15 -10 0 -6 52 -10 135 -10 83 0 135 4 135 10 0 6 -9 10 -20 10 -30 0 -28 47
3 53 21 3 21 4 -5 15 -34 14 -37 39 -5 45 l22 4 -22 8 c-13 4 -23 16 -23 26 0
22 -13 25 -29 5z"/>
<path d="M710 650 c0 -6 55 -10 145 -10 90 0 145 4 145 10 0 6 -55 10 -145 10
-90 0 -145 -4 -145 -10z"/>
<path d="M1200 655 c0 -13 14 -15 93 -13 53 2 92 7 92 13 0 6 -39 11 -92 13
-79 2 -93 0 -93 -13z"/>
</g>
</svg>
